<svg width="10" height="13" viewBox="0 0 10 13" fill="none" xmlns="http://www.w3.org/2000/svg">
<path d="M7.42857 1H3.57143C2.15127 1 1 2.15127 1 3.57143V8.71429" stroke="#E4E4E4"/>
<path d="M3.98738 11.7764L3.68439 12.1712L3.98738 11.7764C3.88833 11.7004 3.79968 11.6117 3.72368 11.5127C3.60233 11.3545 3.51993 11.1384 3.47514 10.7411C3.42921 10.3337 3.42847 9.80142 3.42847 9.03585V6.46443C3.42847 5.69886 3.42921 5.16654 3.47514 4.75916C3.51993 4.36186 3.60233 4.14576 3.72368 3.98762C3.79968 3.88858 3.88833 3.79992 3.98738 3.72392C4.14552 3.60257 4.36162 3.52017 4.75892 3.47538C5.16629 3.42945 5.69862 3.42871 6.46418 3.42871C7.22974 3.42871 7.76207 3.42945 8.16944 3.47538C8.56674 3.52017 8.78284 3.60257 8.94098 3.72392L9.24536 3.32724L8.94098 3.72392C9.04003 3.79992 9.12869 3.88858 9.20469 3.98762C9.32603 4.14576 9.40844 4.36186 9.45323 4.75916C9.49915 5.16654 9.4999 5.69886 9.4999 6.46443V9.03585C9.4999 9.80142 9.49915 10.3337 9.45323 10.7411C9.40844 11.1384 9.32603 11.3545 9.20469 11.5127C9.12868 11.6117 9.04003 11.7004 8.94098 11.7764L9.24536 12.173L8.94098 11.7764C8.78284 11.8977 8.56674 11.9801 8.16944 12.0249C7.76207 12.0708 7.22974 12.0716 6.46418 12.0716C5.69862 12.0716 5.16629 12.0708 4.75892 12.0249C4.36162 11.9801 4.14552 11.8977 3.98738 11.7764Z" stroke="#E4E4E4"/>
</svg>
