<svg width="9" height="11" viewBox="0 0 9 11" fill="none" xmlns="http://www.w3.org/2000/svg">
<g clip-path="url(#clip0_2058_2102)">
<path d="M5.9033 5.88865H2.19726C2.10938 5.88865 2.03613 5.91713 1.97754 5.9741C1.91895 6.03107 1.88965 6.10187 1.88965 6.1865C1.88965 6.27117 1.91895 6.34278 1.97754 6.40135C2.03613 6.45995 2.10938 6.48925 2.19726 6.48925H5.9033C5.98793 6.48925 6.05873 6.45995 6.1157 6.40135C6.17267 6.34278 6.20115 6.27117 6.20115 6.1865C6.20115 6.10187 6.17267 6.03107 6.1157 5.9741C6.05873 5.91713 5.98793 5.88865 5.9033 5.88865ZM5.9033 7.59275H2.19726C2.10938 7.59275 2.03613 7.62205 1.97754 7.68065C1.91895 7.73925 1.88965 7.8125 1.88965 7.9004C1.88965 7.98177 1.91895 8.05093 1.97754 8.1079C2.03613 8.16487 2.10938 8.19335 2.19726 8.19335H5.9033C5.98793 8.19335 6.05873 8.16487 6.1157 8.1079C6.17267 8.05093 6.20115 7.98177 6.20115 7.9004C6.20115 7.8125 6.17267 7.73925 6.1157 7.68065C6.05873 7.62205 5.98793 7.59275 5.9033 7.59275ZM1.51367 10.4688H6.6992C7.20377 10.4688 7.58218 10.341 7.83445 10.0855C8.08675 9.82992 8.2129 9.44825 8.2129 8.94045V4.50683C8.2129 4.29525 8.2015 4.11784 8.1787 3.97461C8.15593 3.83138 8.11118 3.70036 8.04445 3.58155C7.97772 3.46273 7.87923 3.33659 7.749 3.20312L5.0586 0.463867C4.9349 0.336914 4.81445 0.240072 4.69727 0.17334C4.58008 0.106608 4.45231 0.061035 4.31396 0.0366211C4.17562 0.012207 4.0153 0 3.83301 0H1.51367C1.00911 0 0.630696 0.128581 0.378418 0.385742C0.126139 0.642904 0 1.02539 0 1.53321V8.94045C0 9.45152 0.126139 9.834 0.378418 10.0879C0.630696 10.3418 1.00911 10.4688 1.51367 10.4688ZM1.54785 9.6826C1.2972 9.6826 1.10758 9.6175 0.979005 9.4873C0.850425 9.3571 0.786135 9.16993 0.786135 8.9258V1.54785C0.786135 1.30697 0.850425 1.11979 0.979005 0.98633C1.10758 0.852867 1.29883 0.786135 1.55273 0.786135H3.72558V3.62304C3.72558 3.92903 3.80208 4.15853 3.95508 4.31152C4.10807 4.46452 4.33756 4.54102 4.64356 4.54102H7.42675V8.9258C7.42675 9.16993 7.36247 9.3571 7.2339 9.4873C7.1053 9.6175 6.91405 9.6826 6.66015 9.6826H1.54785ZM4.73144 3.80371C4.63379 3.80371 4.56461 3.78255 4.52392 3.74024C4.48323 3.69792 4.46289 3.62793 4.46289 3.53028V0.9375L7.2754 3.80371H4.73144Z" fill="white" fill-opacity="0.85"/>
</g>
<defs>
<clipPath id="clip0_2058_2102">
<rect width="8.2129" height="10.4736" fill="white"/>
</clipPath>
</defs>
</svg>
