<svg width="13" height="14" viewBox="0 0 13 14" fill="none" xmlns="http://www.w3.org/2000/svg">
<g clip-path="url(#clip0_2033_2786)">
<path fill-rule="evenodd" clip-rule="evenodd" d="M2.07863 6.00765L1.07803 5.11823C0.943877 4.99898 0.738453 5.01106 0.619205 5.14522C0.499956 5.27937 0.51204 5.4848 0.646195 5.60404L1.58819 6.44137C1.75548 6.29279 1.91887 6.14801 2.07863 6.00765ZM4.06382 8.59049C4.27816 8.76049 4.48149 8.91253 4.67686 9.04606C5.37384 9.5224 6.00376 9.78778 6.71211 9.78778C7.42046 9.78778 8.05038 9.5224 8.74736 9.04606C9.43272 8.57766 10.2161 7.88133 11.2286 6.9813L11.2286 6.98128L11.2464 6.9655L12.778 5.60404C12.9122 5.4848 12.9243 5.27937 12.805 5.14522C12.6858 5.01106 12.4803 4.99898 12.3462 5.11823L10.8146 6.47968C9.78056 7.39879 9.02773 8.06715 8.3806 8.50941C7.7411 8.94647 7.23941 9.13778 6.71211 9.13778C6.18482 9.13778 5.68313 8.94647 5.04362 8.50941C4.8897 8.40422 4.72979 8.28623 4.56155 8.15511C4.40656 8.28906 4.24128 8.43389 4.06382 8.59049Z" fill="white"/>
<path fill-rule="evenodd" clip-rule="evenodd" d="M9.3604 6.03226C9.14607 5.86225 8.94273 5.71021 8.74736 5.57669C8.05038 5.10035 7.42046 4.83496 6.71211 4.83496C6.00376 4.83496 5.37384 5.10035 4.67686 5.57669C3.9915 6.04509 3.20812 6.74142 2.19558 7.64147L2.19558 7.64147L2.17783 7.65725L0.646195 9.0187C0.51204 9.13795 0.499956 9.34337 0.619205 9.47753C0.738453 9.61168 0.943877 9.62376 1.07803 9.50452L2.60967 8.14306C3.64366 7.22395 4.3965 6.5556 5.04362 6.11333C5.68313 5.67627 6.18482 5.48496 6.71211 5.48496C7.23941 5.48496 7.7411 5.67627 8.3806 6.11333C8.53453 6.21853 8.69443 6.33652 8.86268 6.46763C9.01766 6.33368 9.18295 6.18886 9.3604 6.03226ZM11.836 8.18137C11.6688 8.32995 11.5054 8.47474 11.3456 8.6151L12.3462 9.50452C12.4803 9.62376 12.6858 9.61168 12.805 9.47753C12.9243 9.34337 12.9122 9.13795 12.778 9.0187L11.836 8.18137Z" fill="white"/>
</g>
<defs>
<clipPath id="clip0_2033_2786">
<rect width="12.7214" height="12.8534" fill="white" transform="translate(0.166016 0.93457)"/>
</clipPath>
</defs>
</svg>
