<svg width="4" height="7" viewBox="0 0 4 7" fill="none" xmlns="http://www.w3.org/2000/svg">
<g clip-path="url(#clip0_2381_2578)">
<path d="M3.94128 3.49798C3.94128 3.44694 3.9312 3.39925 3.91105 3.35492C3.8909 3.31059 3.86202 3.26962 3.82441 3.23201L0.632698 0.104778C0.56016 0.0349261 0.471502 0 0.366724 0C0.299558 0 0.237766 0.0161198 0.181347 0.0483594C0.124928 0.0805988 0.0805988 0.124256 0.0483594 0.179332C0.0161198 0.234408 0 0.296872 0 0.366724C0 0.466129 0.0349261 0.553445 0.104778 0.628671L3.03857 3.49798L0.104778 6.3673C0.0349261 6.44252 0 6.52984 0 6.62926C0 6.69911 0.0161198 6.76158 0.0483594 6.81665C0.0805988 6.87173 0.124928 6.91538 0.181347 6.94759C0.237766 6.97983 0.299558 6.99596 0.366724 6.99596C0.471502 6.99596 0.56016 6.9597 0.632698 6.88718L3.82441 3.76396C3.86202 3.72635 3.8909 3.68538 3.91105 3.64105C3.9312 3.59672 3.94128 3.54903 3.94128 3.49798Z" fill="#484848"/>
</g>
<defs>
<clipPath id="clip0_2381_2578">
<rect width="3.94128" height="7" fill="white"/>
</clipPath>
</defs>
</svg>
