<svg width="10" height="10" viewBox="0 0 10 10" fill="none" xmlns="http://www.w3.org/2000/svg">
<g clip-path="url(#clip0_2361_4226)">
<path d="M4.98047 9.96193C5.66082 9.96193 6.30128 9.83171 6.90185 9.57128C7.50245 9.31088 8.03223 8.95118 8.4912 8.49218C8.9502 8.03321 9.3099 7.50343 9.5703 6.90283C9.83073 6.30226 9.96095 5.6618 9.96095 4.98145C9.96095 4.30111 9.83073 3.66064 9.5703 3.06006C9.3099 2.45947 8.9502 1.92969 8.4912 1.4707C8.03223 1.01172 7.50163 0.652018 6.8994 0.391602C6.2972 0.131185 5.65593 0.000976562 4.97558 0.000976562C4.29525 0.000976562 3.65479 0.131185 3.0542 0.391602C2.45361 0.652018 1.92464 1.01172 1.46729 1.4707C1.00993 1.92969 0.651042 2.45947 0.390625 3.06006C0.130208 3.66064 0 4.30111 0 4.98145C0 5.6618 0.130208 6.30226 0.390625 6.90283C0.651042 7.50343 1.01074 8.03321 1.46973 8.49218C1.92871 8.95118 2.4585 9.31088 3.05908 9.57128C3.65967 9.83171 4.30013 9.96193 4.98047 9.96193ZM4.98047 9.13183C4.4043 9.13183 3.86556 9.02441 3.36426 8.80958C2.86296 8.59474 2.42269 8.29771 2.04345 7.91848C1.66422 7.53924 1.368 7.09898 1.15479 6.59768C0.941568 6.09638 0.83496 5.55763 0.83496 4.98145C0.83496 4.40527 0.941568 3.86654 1.15479 3.36524C1.368 2.86393 1.66341 2.42285 2.04101 2.04199C2.41862 1.66113 2.85807 1.36409 3.35938 1.15088C3.86068 0.937663 4.39942 0.831057 4.97558 0.831057C5.55176 0.831057 6.0905 0.937663 6.5918 1.15088C7.0931 1.36409 7.53418 1.66113 7.91505 2.04199C8.29592 2.42285 8.59377 2.86393 8.8086 3.36524C9.02343 3.86654 9.13085 4.40527 9.13085 4.98145C9.13085 5.55763 9.02425 6.09638 8.81105 6.59768C8.59782 7.09898 8.30158 7.53924 7.92235 7.91848C7.54312 8.29771 7.10203 8.59474 6.5991 8.80958C6.0962 9.02441 5.55666 9.13183 4.98047 9.13183ZM4.02344 4.98633L2.34375 3.30664C2.31445 3.35547 2.2998 3.46615 2.2998 3.63867V6.31448C2.2998 6.49024 2.31608 6.60579 2.34863 6.66113L4.02344 4.98633ZM4.98047 5.24023C5.07486 5.24023 5.16275 5.19954 5.24415 5.11818L7.37795 2.98438C7.34865 2.95833 7.299 2.93555 7.229 2.91602C7.159 2.89648 7.07355 2.88672 6.97265 2.88672H2.98828C2.88411 2.88672 2.79785 2.89648 2.72949 2.91602C2.66113 2.93555 2.61068 2.95833 2.57812 2.98438L4.71192 5.11818C4.76074 5.16701 4.80713 5.19956 4.85108 5.21583C4.89502 5.23209 4.93815 5.24023 4.98047 5.24023ZM5.92285 4.98633L7.59765 6.66113C7.63022 6.60579 7.6465 6.49024 7.6465 6.31448V3.63867C7.6465 3.46615 7.63185 3.35547 7.60255 3.30664L5.92285 4.98633ZM4.97558 5.62598C4.81608 5.62598 4.65007 5.54784 4.47754 5.39158L4.32129 5.24513L2.59278 6.97363C2.65462 7.03549 2.78646 7.06643 2.98828 7.06643H6.96775C7.16632 7.06643 7.29817 7.03549 7.3633 6.97363L5.6299 5.24513L5.47365 5.39158C5.30438 5.54784 5.13836 5.62598 4.97558 5.62598Z" fill="#D0D0D0"/>
</g>
<defs>
<clipPath id="clip0_2361_4226">
<rect width="9.96095" height="9.9658" fill="white"/>
</clipPath>
</defs>
</svg>
