<svg width="32" height="32" viewBox="0 0 32 32" fill="none" xmlns="http://www.w3.org/2000/svg">
<path d="M6.17944 23.1623C4.84895 21.9225 4.08652 20.0636 4.00485 18.2642C3.9963 18.0014 3.9949 17.7387 3.99557 17.4758C3.99559 17.4293 3.9956 17.3828 3.99561 17.3349C3.99778 16.5482 4.06697 15.8047 4.26197 15.0402C4.27272 14.9953 4.28348 14.9504 4.29455 14.9042C4.89266 12.4408 6.59233 10.1741 8.58517 8.64674C8.6176 8.62152 8.65002 8.59629 8.68343 8.5703C9.4817 7.95197 10.3461 7.43963 11.2339 6.96085C11.2891 6.93098 11.2891 6.93098 11.3454 6.90051C11.5202 6.8084 11.6811 6.74176 11.8732 6.69826C12.0207 6.91246 12.1677 7.12691 12.3147 7.34141C12.3562 7.40173 12.3977 7.46205 12.4405 7.5242C12.6507 7.83128 12.8522 8.13715 13.0302 8.46407C12.9986 8.48366 12.9671 8.50324 12.9346 8.52342C12.0491 9.0734 12.0491 9.0734 11.2034 9.68187C11.1523 9.72057 11.1013 9.75927 11.0486 9.79914C10.2072 10.4591 9.48276 11.2287 8.88962 12.1175C8.85501 12.1676 8.82039 12.2176 8.78473 12.2692C8.15856 13.2344 7.77469 14.4565 7.61093 15.5882C7.64656 15.5721 7.6822 15.5559 7.71891 15.5392C8.8549 15.0719 10.1904 15.1536 11.3252 15.5882C12.5243 16.112 13.3692 16.951 13.9024 18.1432C14.3394 19.2773 14.3214 20.5754 13.836 21.6915C13.2903 22.8649 12.5055 23.7441 11.2834 24.227C9.5252 24.8053 7.56067 24.3812 6.17944 23.1623Z" fill="#C1C1C1"/>
<path d="M19.1417 23.0985C17.6473 21.6263 17.0077 19.7244 16.9667 17.654C16.9619 16.8905 17.0127 16.1534 17.1709 15.4061C17.181 15.3581 17.1911 15.3102 17.2015 15.2607C17.6125 13.3919 18.582 11.7082 19.85 10.2913C19.8799 10.2576 19.9099 10.224 19.9407 10.1893C21.3086 8.65549 22.9596 7.61568 24.7821 6.6988C24.9494 6.85872 25.087 7.01878 25.2162 7.21066C25.2503 7.26097 25.2844 7.31129 25.3196 7.36312C25.3544 7.41516 25.3893 7.46721 25.4253 7.52082C25.4951 7.62424 25.5649 7.72763 25.6348 7.83098C25.6655 7.87662 25.6961 7.92227 25.7277 7.96929C25.8153 8.09643 25.9064 8.22001 25.9999 8.34284C25.9084 8.60797 25.7425 8.67716 25.5014 8.80332C23.3547 9.97256 21.6168 11.9048 20.9114 14.2591C20.8952 14.3149 20.879 14.3706 20.8623 14.428C20.8394 14.5069 20.8394 14.5069 20.816 14.5874C20.7237 14.9215 20.6716 15.2434 20.6416 15.5888C20.6783 15.5713 20.715 15.5538 20.7527 15.5358C21.7448 15.077 22.9672 15.1595 23.9906 15.4784C24.7709 15.772 25.3592 16.159 25.939 16.7457C26 16.8057 26 16.8057 26.0622 16.867C26.9468 17.7996 27.1886 18.9838 27.1742 20.2264C27.1603 20.6602 27.0693 21.0281 26.9133 21.4342C26.8964 21.4859 26.8795 21.5377 26.8621 21.591C26.4812 22.6812 25.6626 23.5757 24.6299 24.0753C22.79 24.867 20.5994 24.4676 19.1417 23.0985Z" fill="#C1C1C1"/>
</svg>
