<svg width="8" height="13" viewBox="0 0 8 13" fill="none" xmlns="http://www.w3.org/2000/svg">
<g clip-path="url(#clip0_2344_8611)">
<path d="M7.16308 6.3584C7.16308 6.26563 7.14477 6.17896 7.10816 6.09839C7.07154 6.01782 7.01904 5.94336 6.95069 5.875L1.1499 0.191406C1.01806 0.0644531 0.856933 0.000976562 0.666504 0.000976562C0.544433 0.000976562 0.432129 0.0302736 0.32959 0.0888676C0.227051 0.147461 0.146484 0.226807 0.087891 0.326904C0.029297 0.427002 0 0.540528 0 0.667481C0 0.848145 0.0634765 1.00684 0.19043 1.14356L5.52246 6.3584L0.19043 11.5733C0.0634765 11.71 0 11.8687 0 12.0494C0 12.1763 0.029297 12.2898 0.087891 12.3899C0.146484 12.49 0.227051 12.5694 0.32959 12.6279C0.432129 12.6865 0.544433 12.7158 0.666504 12.7158C0.856933 12.7158 1.01806 12.6499 1.1499 12.5181L6.95069 6.84179C7.01904 6.77344 7.07154 6.69898 7.10816 6.61841C7.14477 6.53784 7.16308 6.45117 7.16308 6.3584Z" fill="black" fill-opacity="0.85"/>
</g>
<defs>
<clipPath id="clip0_2344_8611">
<rect width="7.16308" height="12.7222" fill="white"/>
</clipPath>
</defs>
</svg>
