<svg width="63" height="128" viewBox="0 0 63 128" fill="none" xmlns="http://www.w3.org/2000/svg">
<path d="M50.2965 61.7635C49.9321 62.1279 49.2641 62.1279 49.1427 61.5206C47.503 52.715 47.1993 43.6664 48.2317 34.8001C48.2924 34.1928 48.9605 34.0106 49.3248 34.1928C49.507 34.3142 49.6892 34.4964 49.6285 34.8001C48.5961 43.545 48.839 52.4721 50.4787 61.1562C50.5394 61.3991 50.418 61.5813 50.2965 61.7635Z" fill="white"/>
<path d="M50.2967 61.7634C48.5356 52.7148 48.1712 43.3019 49.325 34.1319C49.5072 34.2533 49.6894 34.4355 49.6287 34.7392C48.5963 43.4841 48.8392 52.4112 50.4789 61.0954C50.5396 61.399 50.4182 61.5812 50.2967 61.7634Z" fill="white"/>
<path d="M61.1673 38.7471C61.0458 39.2937 60.6815 39.6581 60.3778 39.8403C60.0134 40.0225 59.6491 40.1439 59.2847 40.1439C59.0418 40.1439 58.7989 39.9617 58.7989 39.6581C58.7989 39.4152 58.981 39.233 59.1632 39.1722C59.3454 39.1115 59.5276 39.0508 59.7098 38.9293C59.7098 38.9293 59.7705 38.9293 59.7705 38.8686C59.892 38.7472 60.0134 38.565 59.9527 38.5042C59.9527 38.5042 59.892 38.3828 59.7705 38.2613C59.6491 38.1399 59.4061 38.0184 59.1632 37.9577C58.6774 37.7755 58.1916 37.7148 57.645 37.654C57.0984 37.5933 56.4911 37.5933 55.8839 37.5933L52.3008 37.5326C51.0862 37.5326 49.9324 37.5326 48.7178 37.5326C46.3494 37.5326 43.9809 37.5933 41.6125 37.7148C40.3979 37.7755 39.244 37.8362 38.2724 38.1399C38.0295 38.2006 37.7865 38.322 37.6651 38.4435C37.5436 38.5042 37.4829 38.6257 37.4222 38.6864C37.4222 38.8079 37.4222 38.9293 37.5436 39.0508L37.6044 39.1115C37.7258 39.1722 37.8473 39.2937 38.0295 39.2937C38.2724 39.3544 38.4546 39.5974 38.3938 39.8403C38.3331 40.0832 38.1509 40.2046 37.908 40.2046C37.5436 40.2046 37.1185 40.0832 36.8149 39.8403C36.4505 39.5974 36.1469 39.1115 36.2076 38.6257C36.2076 38.1399 36.4505 37.654 36.8149 37.3504C37.1185 37.1075 37.4222 36.9253 37.7865 36.7431C39.0618 36.1966 40.3372 36.0751 41.491 35.9536C43.9202 35.65 46.3494 35.5285 48.7785 35.5285C49.9931 35.5285 51.2077 35.5285 52.4223 35.5893C53.6369 35.65 54.8514 35.7107 56.066 35.8322C57.2806 35.9536 58.5559 36.0144 59.892 36.6216C60.1956 36.8038 60.4993 36.986 60.8029 37.2897C60.9244 37.4111 61.1066 37.5933 61.1673 37.8362C61.1673 38.1399 61.228 38.4435 61.1673 38.7471Z" fill="white"/>
<path d="M60.135 38.3824C60.135 38.6253 59.9528 38.8682 59.7099 38.9897H59.6492C59.6492 38.9897 59.7099 38.9897 59.7099 38.929C59.8314 38.8075 59.9528 38.6253 59.8921 38.5646C59.8921 38.5646 59.8314 38.4432 59.7099 38.3217C59.5885 38.2002 59.3455 38.0788 59.1026 38.0181C58.6168 37.8359 58.131 37.7751 57.5844 37.7144C57.0378 37.6537 56.4305 37.6537 55.8232 37.6537L52.2402 37.5929C51.0256 37.5929 49.8718 37.5929 48.6572 37.5929C46.2888 37.5929 43.9203 37.6537 41.5519 37.7751C40.3373 37.8359 39.1834 37.8966 38.2118 38.2002C37.9689 38.261 37.7259 38.3824 37.6045 38.5039C37.483 38.5646 37.4223 38.6861 37.3616 38.7468C37.3616 38.8682 37.3616 38.9897 37.483 39.1112L37.5438 39.1719C37.1794 38.9897 37.1794 38.4431 37.4223 38.1395C37.6652 37.8359 38.0903 37.7144 38.4547 37.5929C40.5195 37.1071 42.645 36.9857 44.7098 36.9857C48.2928 36.9249 51.9366 36.9857 55.5196 37.1071C56.7949 37.1679 58.131 37.2286 59.3455 37.6537C59.7099 37.7144 60.135 37.9573 60.135 38.3824Z" fill="white"/>
<path d="M59.2846 44.6379C59.1632 45.1238 58.8595 45.4274 58.5559 45.6096C58.2522 45.7918 57.8878 45.8525 57.5842 45.8525C57.3413 45.8525 57.0984 45.6703 57.0984 45.3667C57.0984 45.1238 57.2198 44.9416 57.4627 44.8809H57.5235C57.7057 44.8201 57.8878 44.7594 58.0093 44.6379C58.07 44.5772 58.07 44.5772 58.1308 44.5165C58.1308 44.4558 58.1915 44.395 58.1308 44.395C58.1308 44.4558 58.1308 44.395 58.0093 44.2736C57.8878 44.2128 57.7057 44.0914 57.5235 44.0307C57.1591 43.9092 56.734 43.8485 56.2482 43.7878C55.7623 43.7878 55.2765 43.727 54.7906 43.727H51.7542C50.7218 43.727 49.7501 43.727 48.7177 43.727C46.7137 43.727 44.7096 43.7877 42.7055 43.8485C41.6731 43.9092 40.7015 43.9092 39.912 44.1521C39.7298 44.2128 39.5476 44.2736 39.4262 44.395C39.3047 44.4558 39.3047 44.5165 39.244 44.5165C39.244 44.5772 39.244 44.6379 39.3047 44.7594C39.3047 44.8201 39.3654 44.8201 39.4262 44.8809C39.4869 44.9416 39.6083 45.0023 39.7298 45.0023C39.9727 45.063 40.1549 45.306 40.0942 45.5489C40.0335 45.7918 39.8513 45.9132 39.6083 45.9132C39.3047 45.9132 38.9403 45.8525 38.6367 45.6096C38.333 45.3667 38.0294 44.9416 38.0294 44.5165C38.0294 44.0307 38.2723 43.6056 38.576 43.3626C38.8189 43.1197 39.1225 42.9983 39.4262 42.8161C40.5193 42.3303 41.6124 42.2695 42.5841 42.0873C44.6489 41.8444 46.6529 41.723 48.7177 41.723C49.7501 41.723 50.7825 41.723 51.8149 41.7837C52.8473 41.8444 53.8797 41.9052 54.8514 41.9659C55.8838 42.0874 56.9769 42.1481 58.07 42.6946C58.313 42.8161 58.6166 42.9983 58.8595 43.3019C58.981 43.4234 59.1024 43.6056 59.2239 43.7878C59.2846 44.0914 59.3454 44.395 59.2846 44.6379Z" fill="white"/>
<path d="M58.1304 44.3954C58.1304 44.4561 58.0697 44.5168 58.0697 44.5168C58.0697 44.4561 58.1304 44.3954 58.0697 44.3954C58.0697 44.4561 58.0697 44.3954 57.9482 44.2739C57.8267 44.2132 57.6446 44.0917 57.4624 44.031C57.098 43.9095 56.6729 43.8488 56.1871 43.7881C55.7012 43.7881 55.2154 43.7274 54.7296 43.7274H51.6931C50.6607 43.7274 49.689 43.7274 48.6566 43.7274C46.6526 43.7274 44.6485 43.7881 42.6444 43.8488C41.612 43.9095 40.6404 43.9095 39.8509 44.1525C39.6687 44.2132 39.4865 44.2739 39.3651 44.3954C39.2436 44.4561 39.2436 44.5168 39.1829 44.5168C39.1829 44.5776 39.1829 44.6383 39.2436 44.7597C39.2436 44.8205 39.3043 44.8205 39.3651 44.8812C39.1829 44.8205 39.0614 44.699 39.0007 44.5168C38.94 44.2132 39.1829 43.9703 39.4258 43.7881C39.6687 43.6666 39.9724 43.6059 40.276 43.6059C45.8631 43.0593 51.5109 42.8164 57.098 43.5452C57.3409 43.6059 57.6446 43.6059 57.8267 43.7274C58.0697 43.9095 58.1911 44.1525 58.1304 44.3954Z" fill="white"/>
<path d="M56.9771 50.2856C56.8557 50.7107 56.6128 50.9536 56.3091 51.1358C56.0662 51.2572 55.7626 51.318 55.5196 51.318C55.2767 51.318 55.0338 51.1358 55.0338 50.8321C55.0338 50.6499 55.1553 50.4678 55.3375 50.407H55.3982C55.5196 50.3463 55.6411 50.2856 55.7018 50.2248C55.7018 50.2248 55.7018 50.2248 55.6411 50.2248C55.5804 50.1641 55.4589 50.1034 55.3375 50.1034C54.7909 49.9212 54.0621 49.9212 53.3334 49.9212H48.718C47.1997 49.9212 45.6815 49.9212 44.1633 49.9819C43.3738 50.0426 42.645 50.0427 42.0378 50.1641C41.9163 50.2248 41.7949 50.2248 41.6734 50.2856C41.6127 50.2856 41.6127 50.2856 41.6127 50.2856C41.6127 50.2856 41.5519 50.2856 41.6127 50.3463C41.6127 50.407 41.6734 50.407 41.7341 50.4678C41.7341 50.4678 41.7948 50.5285 41.8556 50.5285H41.9163C42.1592 50.5892 42.2807 50.8928 42.22 51.1358C42.1592 51.3179 41.977 51.5001 41.7341 51.5001C41.4912 51.5001 41.1875 51.4394 40.8839 51.2572C40.641 51.075 40.3981 50.7107 40.3981 50.2856C40.3981 49.8605 40.5803 49.4961 40.8232 49.3139C41.0661 49.1317 41.2483 49.0103 41.4912 48.8888C42.4021 48.5244 43.1916 48.403 43.9811 48.2815C45.5601 48.0386 47.139 47.9779 48.718 47.9779C49.5074 47.9779 50.2969 47.9779 51.0864 48.0386C51.8759 48.0993 52.6654 48.1601 53.4549 48.2208C54.2443 48.2815 55.0945 48.3423 56.0055 48.8281C56.2484 48.9495 56.4306 49.071 56.6735 49.3139C56.795 49.4354 56.8557 49.5568 56.9771 49.739C56.9164 49.7997 56.9771 50.1034 56.9771 50.2856Z" fill="white"/>
<path d="M55.7022 50.2251C55.6415 50.2251 55.6415 50.2251 55.7022 50.2251C55.5807 50.1644 55.4593 50.1037 55.3378 50.043C54.7913 49.8608 54.0625 49.8608 53.3338 49.8608H48.7183C47.2001 49.8608 45.6819 49.8608 44.1636 49.9215C43.3742 49.9822 42.6454 49.9822 42.0381 50.1037C41.9167 50.1644 41.7952 50.1644 41.6738 50.2251C41.613 50.2251 41.613 50.2251 41.613 50.2251C41.613 50.2251 41.5523 50.2251 41.613 50.2859C41.613 50.3466 41.6737 50.3466 41.7345 50.4073C41.613 50.4073 41.4916 50.2859 41.4916 50.1644C41.4308 49.9822 41.5523 49.8 41.7345 49.7393C41.8559 49.6786 42.0381 49.6178 42.2203 49.6178C46.5321 49.1927 50.9653 49.132 55.3378 49.6786C55.52 49.6786 55.7022 49.7393 55.7629 49.8608C55.7629 49.9822 55.7629 50.1037 55.7022 50.2251Z" fill="white"/>
<path d="M28.7984 17.007C29.7094 20.6507 32.0778 23.9907 35.2357 26.2377C36.2074 26.9664 37.3005 27.3916 38.4544 27.6345C38.1507 28.4239 38.09 29.2741 38.2115 30.1243C38.2722 30.7316 38.5151 31.2782 38.9402 31.7033C39.5475 32.1891 40.4584 32.1891 41.1872 31.8247C41.9159 31.4604 42.4018 30.7923 42.8269 30.0636C42.8269 30.7923 43.4342 31.3389 44.1629 31.4604C44.8309 31.5818 45.5597 31.2782 46.1063 30.7923C46.5921 30.3065 46.9565 29.6992 47.2601 29.0919C47.7459 29.517 48.3533 29.8814 48.9605 30.0636C49.6286 30.2458 50.3573 30.1243 50.8431 29.6992C51.329 29.2741 51.6326 28.4847 51.2682 27.8774C52.0577 28.4239 53.1509 28.6061 54.0618 28.3025C54.5476 28.181 54.9727 27.9381 55.2156 27.5737C55.5193 27.0879 55.5193 26.4806 55.3371 25.9341C55.2764 25.7519 55.1549 25.5697 55.0335 25.3875C54.7906 25.0231 54.4262 24.7195 54.0618 24.4158C55.3978 23.6264 56.491 22.4725 57.2197 21.1365C59.1023 17.6143 59.7703 13.424 58.7987 9.59808C56.8553 1.76411 48.9605 -1.4545 40.6406 0.610271C35.9037 1.76411 32.1385 4.37544 30.0738 7.83696C28.5555 10.4483 28.009 13.6062 28.7984 17.007Z" fill="white"/>
<path d="M60.4385 63.1603C60.3778 62.4316 60.2563 61.7029 59.8312 61.0956C59.7705 61.0348 59.7098 60.9134 59.649 60.8526C59.2847 60.3668 58.6774 60.0024 58.0701 60.0024C57.0984 60.0024 56.3697 60.7919 55.8838 61.6421C55.4587 62.4923 55.1551 63.464 54.5478 64.1927C53.3332 65.5895 50.904 65.5895 49.2036 65.2251C47.321 64.8607 45.6206 63.5854 44.8918 61.7636C44.4667 60.7312 44.1631 59.3952 43.1307 59.0308C42.4627 58.7879 41.6732 59.1522 41.1874 59.6988C40.7015 60.2454 40.4586 60.9741 40.2764 61.6421C39.6691 64.1927 39.8513 66.9255 40.7623 69.3546C40.8837 69.719 41.0659 70.0834 41.2481 70.4478C41.491 70.8729 41.7947 71.2372 42.159 71.5409C42.8878 72.0874 43.9202 72.2696 44.6489 71.7231C45.5599 71.055 45.5599 69.5976 46.4708 68.9296C47.0174 68.5044 47.7461 68.4437 48.4141 68.4437C49.7502 68.383 51.0862 68.4437 52.4223 68.5652C53.5761 68.6866 54.8514 68.9296 55.5195 69.9012C55.8838 70.5085 56.0053 71.3587 56.6733 71.6623C57.0984 71.8445 57.5843 71.723 57.9486 71.4801C58.313 71.2372 58.6166 70.8121 58.7988 70.4478C60.0742 68.2615 60.6814 65.6502 60.4385 63.1603ZM56.3089 65.2858C56.4304 64.132 56.734 63.0389 57.2806 62.0065C57.4021 61.7636 57.5843 61.5207 57.7665 61.3385C58.0094 61.1563 58.313 61.0956 58.5559 61.1563C58.9203 61.2777 59.0418 61.7028 59.1632 62.0672C59.5276 63.8283 59.4061 66.2575 58.313 67.7757C57.8879 68.3223 57.1591 68.4437 56.6733 67.8364C56.1268 67.2291 56.2482 66.0146 56.3089 65.2858ZM41.1874 64.9822C41.0659 63.8284 41.1266 62.6745 41.4303 61.5814C41.491 61.3385 41.6125 61.0348 41.7947 60.7919C41.9768 60.549 42.2805 60.4276 42.5234 60.4276C42.8878 60.4883 43.1307 60.8526 43.3129 61.217C44.0416 62.8567 44.4668 65.2858 43.738 66.9255C43.4344 67.5935 42.7663 67.8364 42.159 67.3506C41.4303 66.9255 41.2481 65.7109 41.1874 64.9822Z" fill="white"/>
<path d="M58.7988 70.4478C58.5559 70.8121 58.313 71.2372 57.9486 71.4801C57.5843 71.723 57.0377 71.8445 56.6733 71.6623C56.0053 71.3587 55.8838 70.5085 55.5195 69.9012C54.9122 68.9296 53.5761 68.6866 52.4223 68.5652C51.0862 68.4437 49.7502 68.4437 48.4141 68.4437C47.7461 68.4437 47.0174 68.5044 46.4708 68.9296C45.5599 69.6583 45.5599 71.055 44.6489 71.7231C43.9202 72.2696 42.8878 72.0874 42.159 71.5409C41.7947 71.2372 41.491 70.8729 41.2481 70.4478C41.7339 70.8729 42.2805 71.1766 42.8271 71.0551C43.4951 70.9337 43.9809 70.3871 44.3453 69.7798C44.7097 69.1725 44.9526 68.5653 45.4384 68.1402C46.1672 67.4721 47.2603 67.4114 48.2927 67.3507C49.8109 67.29 51.3899 67.2292 52.9081 67.4114C53.8191 67.5329 54.7907 67.7151 55.4588 68.3831C55.9446 68.9296 56.2482 69.7798 56.977 70.0227C57.4021 70.1442 57.8879 69.962 58.1916 69.6584C58.4952 69.3547 58.7381 68.9296 58.9203 68.5653C59.6491 67.1078 60.2564 65.5288 60.3171 63.8284C60.3778 62.7961 60.1956 61.7029 59.7098 60.792C59.7705 60.8527 59.8313 60.9742 59.892 61.0349C60.2564 61.6422 60.4386 62.3709 60.4993 63.0997C60.6815 65.6503 60.0742 68.2615 58.7988 70.4478Z" fill="white"/>
<path d="M0.414125 70.8465C0.177476 71.1423 0 71.4381 0 71.7931C0 72.1481 0.177483 72.5622 0.532457 72.6214C0.88743 72.6805 1.18324 72.4439 1.41989 72.2072C2.07068 71.6156 2.72145 71.024 3.37224 70.3732C3.72721 70.0183 4.14135 69.6041 4.02303 69.0717C3.9047 68.5984 3.60889 68.48 3.19476 68.5984C2.12984 68.9533 1.00575 70.0182 0.414125 70.8465Z" fill="white"/>
<path d="M3.66794 71.9113C3.01715 73.3311 2.48469 74.8102 2.42552 76.4076C2.42552 76.8217 2.4847 77.3541 2.89883 77.4725C3.13548 77.5316 3.37212 77.4725 3.60877 77.295C3.84542 77.1175 3.90459 76.94 4.02291 76.7034C4.49621 75.6976 4.6737 74.5735 4.91035 73.5086C5.02867 72.9762 5.147 72.4437 5.32449 71.9113C5.44281 71.4971 5.6203 70.7872 4.96951 70.728C4.25957 70.6689 3.90458 71.3788 3.66794 71.9113Z" fill="white"/>
<path d="M6.68517 72.6211C6.50768 72.8577 6.44852 73.1536 6.38936 73.4494C6.21187 74.1593 6.09355 74.8692 5.91607 75.5792C5.67942 76.7032 5.44276 77.8273 5.50192 79.0106C5.50192 79.2472 5.56108 79.543 5.6794 79.7796C5.79773 80.0163 6.03438 80.1938 6.33019 80.1938C6.626 80.1938 6.86266 80.0163 7.04014 79.7796C7.21763 79.543 7.27679 79.2472 7.33596 79.0106C7.69093 77.2949 7.86841 75.52 7.80925 73.8043C7.80925 73.3902 7.86841 72.6803 7.5726 72.3845C7.27679 72.0295 6.86266 72.3253 6.68517 72.6211Z" fill="white"/>
<path d="M9.52541 73.5085C9.40709 75.1059 9.28877 76.7033 9.64375 78.2415C9.70291 78.419 9.76207 78.6556 9.88039 78.8331C9.99872 79.0106 10.2354 79.1289 10.4128 79.0697C10.7678 79.0106 10.8862 78.5964 10.9453 78.2415C11.1228 77.2357 11.182 76.1708 11.0636 75.1651C11.0045 74.6326 10.8862 74.1002 10.7678 73.5677C10.7087 73.2719 10.5903 72.6211 10.2354 72.4436C9.76207 72.2662 9.52541 73.1536 9.52541 73.5085Z" fill="white"/>
<path d="M11.2409 71.438C11.2409 71.6747 11.4184 71.8522 11.5367 71.9705C12.1875 72.7396 12.8383 73.5087 13.489 74.337C13.6074 74.5144 13.7849 74.6919 14.0215 74.6919C14.2582 74.6919 14.4948 74.4553 14.554 74.2186C14.6131 73.982 14.4948 73.6862 14.3765 73.4495C14.0215 72.6213 13.4299 71.9113 12.7199 71.3789C12.4833 71.2014 12.1283 70.9056 11.8325 70.8464C11.5367 70.8464 11.1817 71.0831 11.2409 71.438Z" fill="white"/>
<path d="M10.886 69.1901C10.886 68.1843 10.886 67.1786 10.886 66.1728C10.886 65.6404 10.886 65.0488 10.6494 64.5755C9.99857 63.3923 8.93364 63.3331 7.92789 63.7472C6.92213 64.1613 5.97552 64.9304 5.44306 65.5812C4.73312 66.4686 4.25982 67.6519 4.55563 68.7168C4.9106 69.9592 6.15302 70.7875 7.33626 71.3199C7.7504 71.4974 8.10537 71.6749 8.51951 71.734C8.57867 71.734 8.69699 71.7932 8.75615 71.7932C9.28861 71.8524 9.82107 71.734 10.176 71.4382C10.8268 70.9058 10.886 69.9592 10.886 69.1901Z" fill="white"/>
<path d="M10.886 69.1901C10.886 68.1843 10.886 67.1786 10.886 66.1728C10.886 65.6404 10.886 65.0488 10.6494 64.5755C9.99857 63.3923 8.93364 63.3331 7.92789 63.7472C8.40118 63.7472 8.81543 63.8064 9.1704 64.1022C9.82119 64.6347 9.88034 65.5813 9.88034 66.4095C9.88034 67.4153 9.9395 68.421 9.9395 69.4268C9.9395 70.1959 9.9395 71.0833 9.28871 71.5566C9.05206 71.7341 8.75626 71.7933 8.46045 71.8524C8.51961 71.8524 8.63793 71.9116 8.69709 71.9116C9.22955 71.9707 9.76201 71.8524 10.117 71.5566C10.8269 70.9058 10.886 69.9592 10.886 69.1901Z" fill="white"/>
<path d="M36.0891 41.2653C36.2074 40.9103 36.2666 40.4962 36.0891 40.2004C36.0299 40.1412 35.9707 40.0229 35.9116 39.9638C35.6158 39.7271 35.0833 39.6088 34.7283 39.6088C35.0833 39.4313 35.2608 38.8989 35.1425 38.4847C35.0241 38.0706 34.61 37.7748 34.1959 37.6565C33.7817 37.5381 33.3084 37.6565 32.9535 37.8339C32.776 37.8931 32.5985 38.0114 32.5393 38.1889C32.421 38.4256 32.4802 38.7214 32.6576 38.958C32.8351 39.1947 33.0718 39.3721 33.3084 39.4905C28.8713 40.0821 24.4341 41.502 20.5294 43.7501C20.6477 43.2176 20.2927 42.626 19.8194 42.4485C19.5828 42.3302 19.3461 42.3302 19.0503 42.3894C18.5179 42.5077 18.0446 42.9218 17.9262 43.4543C17.7488 43.9867 17.9262 44.5784 18.2812 44.9925C18.6362 45.4066 19.287 45.6433 19.8194 45.5249C19.287 45.7616 19.0503 46.5307 19.3461 47.0632C19.4645 47.359 19.7603 47.5364 19.9969 47.7139C20.2336 47.8323 20.5294 47.8914 20.8252 47.8322C21.4168 47.7139 21.8901 47.2998 22.1268 46.7082C22.1859 46.5307 22.2451 46.294 22.1859 46.0574C22.1268 45.8208 22.0084 45.5841 21.7718 45.5249C25.5582 43.4543 29.6995 41.9161 33.9592 40.9695C33.7226 41.2062 33.5451 41.9753 33.7226 42.2119C33.9001 42.5077 34.255 42.626 34.5508 42.626C34.8467 42.626 35.2016 42.4485 35.4383 42.2711C35.6749 41.9161 35.9116 41.6203 36.0891 41.2653Z" fill="white"/>
<path d="M36.0891 41.2653C36.2074 40.9103 36.2666 40.4962 36.0891 40.2004C36.0299 40.1412 35.9707 40.0229 35.9116 39.9638C35.9707 40.0821 36.03 40.2598 36.0892 40.4372C36.1483 40.7922 36.03 41.2064 35.7342 41.3838C35.4384 41.6205 35.0242 41.6205 34.7284 41.443C34.4326 41.2064 34.3735 40.7331 34.6101 40.4964C29.818 41.3838 25.2033 42.9812 20.9436 45.2885C21.4761 45.4068 21.7719 46.1759 21.5944 46.7084C21.4169 47.2408 20.8845 47.5958 20.2928 47.655C20.1745 47.655 20.0562 47.655 19.9379 47.655C20.1745 47.7733 20.4703 47.8324 20.7661 47.7733C21.3578 47.655 21.8311 47.2408 22.0677 46.6492C22.1269 46.4717 22.186 46.2351 22.1269 45.9984C22.0677 45.7618 21.9494 45.5251 21.7127 45.466C25.4991 43.3953 29.6405 41.8571 33.9002 40.9106C33.6635 41.1472 33.486 41.9163 33.6635 42.1529C33.841 42.4487 34.196 42.5671 34.4918 42.5671C34.7876 42.5671 35.1426 42.3896 35.3792 42.2121C35.675 41.9163 35.9116 41.6203 36.0891 41.2653Z" fill="white"/>
<path d="M20.1743 47.9509C20.056 47.5959 19.8194 47.2409 19.4644 47.1818C19.3461 47.1818 19.2869 47.1226 19.1686 47.1818C18.7545 47.1818 18.3403 47.4776 18.0445 47.7142C18.222 47.3001 17.9853 46.8268 17.6304 46.5901C17.2754 46.3535 16.7429 46.4127 16.388 46.5901C16.033 46.8268 15.7372 47.1818 15.5597 47.5959C15.5005 47.7734 15.4414 47.9509 15.5005 48.1284C15.5597 48.4242 15.8555 48.6017 16.0921 48.6017C16.388 48.6608 16.6838 48.6017 16.9204 48.5425C14.0215 51.9739 11.655 55.9968 10.2351 60.2565C9.93928 59.7832 9.34766 59.6057 8.8152 59.7832C8.57855 59.9015 8.40106 60.0198 8.22357 60.2565C7.92776 60.7298 7.86859 61.3214 8.10524 61.7947C8.34189 62.268 8.87436 62.6229 9.40682 62.6821C9.93928 62.7413 10.5901 62.5046 10.8859 62.0313C10.6492 62.5638 11.0042 63.2737 11.5367 63.5104C11.8325 63.6287 12.1874 63.6287 12.4832 63.5104C12.7199 63.4512 12.9565 63.2737 13.134 63.0371C13.489 62.5638 13.5482 61.913 13.3707 61.3214C13.3115 61.1439 13.1932 60.9073 13.0157 60.7889C12.8382 60.6706 12.5424 60.5523 12.3649 60.6706C13.7848 56.5885 15.8555 52.6838 18.3995 49.1341C18.3403 49.4299 18.7544 50.1399 19.0503 50.199C19.3461 50.2582 19.701 50.1398 19.9377 49.9032C20.1743 49.6666 20.2927 49.3708 20.3518 49.0158C20.3518 48.7791 20.2927 48.365 20.1743 47.9509Z" fill="white"/>
<path d="M20.1743 47.9509C20.056 47.5959 19.8194 47.2409 19.4644 47.1818C19.3461 47.1818 19.2869 47.1226 19.1686 47.1818C19.3461 47.2409 19.4643 47.3001 19.5826 47.4184C19.8785 47.655 20.056 48.01 19.9968 48.3649C19.9376 48.7199 19.6418 49.0157 19.2868 49.0749C18.9319 49.0749 18.5769 48.7791 18.5769 48.4241C15.6188 52.2696 13.2523 56.5292 11.6549 61.1439C12.1282 60.9072 12.8973 61.2622 13.134 61.7355C13.3706 62.2679 13.1931 62.8595 12.8382 63.2737C12.779 63.3328 12.6607 63.4511 12.6015 63.5103C12.8382 63.4511 13.0748 63.2737 13.2523 63.037C13.6073 62.5637 13.6664 61.913 13.4889 61.3213C13.4298 61.1439 13.3114 60.9072 13.134 60.7889C12.9565 60.6706 12.6607 60.5522 12.4832 60.6706C13.9031 56.5884 15.9738 52.6838 18.5177 49.1341C18.4586 49.4299 18.8727 50.1398 19.1685 50.199C19.4643 50.2581 19.8193 50.1398 20.056 49.9032C20.2926 49.6665 20.4109 49.3707 20.4701 49.0157C20.3518 48.7791 20.2927 48.365 20.1743 47.9509Z" fill="white"/>
<path d="M45.3174 75.6099C44.8923 76.1564 44.3457 76.4601 43.6777 76.1564C43.9813 81.9256 43.7991 87.9378 43.3133 93.707C43.617 93.4033 44.2242 93.5855 44.5279 93.8891C44.8315 94.1928 44.8923 94.7394 44.7101 95.1037C44.6494 95.2252 44.5886 95.2859 44.5279 95.3466C44.3457 95.5895 44.0421 95.8325 43.7384 95.8932C43.4955 95.9539 43.1919 96.0146 42.8882 95.8932C42.6453 95.7717 42.4024 95.5895 42.4024 95.2859C42.0987 95.7717 41.6129 96.0754 41.0663 96.1361C40.5198 96.1968 39.9732 95.8932 39.6696 95.4074C39.4266 94.9215 39.4874 94.2535 39.9125 93.8891C40.3376 93.5248 41.1271 93.5855 41.4914 93.9499C42.2202 88.1199 42.3416 82.2293 41.7343 76.3993C40.9449 76.703 39.791 76.3386 39.4874 75.4884C39.1837 74.6989 39.6696 73.6665 40.5198 73.4236C41.37 73.1807 42.3417 73.6665 42.5846 74.5167C42.7668 74.2131 42.9489 73.8487 43.1919 73.6058C43.4348 73.3629 43.7384 73.12 44.1028 73.0593C44.285 73.0593 44.4672 73.0593 44.6494 73.12C44.8315 73.1807 45.0745 73.3629 45.1959 73.5451C45.6818 74.2131 45.6818 75.0026 45.3174 75.6099Z" fill="white"/>
<path d="M45.3174 75.6099C44.8923 76.1564 44.3457 76.4601 43.6777 76.1564C43.9813 81.9256 43.7991 87.9378 43.3133 93.707C43.617 93.4033 44.2242 93.5855 44.5279 93.8891C44.8315 94.1928 44.8923 94.7394 44.7101 95.1037C44.6494 95.2252 44.5886 95.2859 44.5279 95.3466C44.5886 95.1037 44.528 94.8607 44.4065 94.6178C44.2851 94.3748 43.9814 94.1927 43.6778 94.1319C43.3741 94.1319 42.949 94.1927 42.7669 94.4356C43.1312 87.9376 43.2527 81.5004 43.192 75.0025C43.4956 75.2454 43.9207 75.3668 44.2851 75.3061C44.6495 75.2454 45.0138 74.9417 45.1353 74.5774C45.196 74.3344 45.1353 74.0308 45.0138 73.7879C44.9531 73.6057 44.7709 73.3628 44.6495 73.2413C44.8316 73.3021 45.0746 73.4842 45.196 73.6664C45.6819 74.213 45.6818 75.0026 45.3174 75.6099Z" fill="white"/>
<path d="M45.1956 98.6866C44.8312 99.2939 44.2846 99.5975 43.6166 99.4153C44.4061 105.185 44.7705 111.136 44.7705 116.966C45.0741 116.662 45.6814 116.784 45.985 117.027C46.2887 117.27 46.4101 117.816 46.2887 118.241C46.228 118.363 46.228 118.423 46.1672 118.545C45.9851 118.848 45.7421 119.031 45.3777 119.152C45.1348 119.274 44.8312 119.274 44.5275 119.213C44.2239 119.152 44.0417 118.97 43.981 118.666C43.7381 119.152 43.2522 119.577 42.7057 119.638C42.1591 119.759 41.5518 119.516 41.2482 119.031C40.9445 118.606 40.9445 117.938 41.3089 117.512C41.6733 117.087 42.4628 117.087 42.8879 117.452C43.1308 111.622 42.7057 105.731 41.6125 99.9619C40.8231 100.326 39.6692 100.023 39.3048 99.2332C38.9404 98.4437 39.3656 97.4113 40.155 97.0469C40.9445 96.6825 41.9769 97.1684 42.3413 97.9578C42.4627 97.6542 42.6449 97.2898 42.8271 96.9862C43.0093 96.6825 43.313 96.4396 43.6773 96.3789C43.8595 96.3182 44.0417 96.3789 44.2239 96.4396C44.4668 96.5004 44.649 96.6218 44.8312 96.804C45.4385 97.2898 45.5599 98.0793 45.1956 98.6866Z" fill="white"/>
<path d="M45.1956 98.6866C44.8312 99.2939 44.2846 99.5975 43.6166 99.4153C44.4061 105.185 44.7705 111.136 44.7705 116.966C45.0741 116.662 45.6814 116.784 45.985 117.027C46.2887 117.27 46.4101 117.816 46.2887 118.241C46.228 118.363 46.228 118.423 46.1672 118.545C46.1672 118.302 46.1674 118.059 45.9852 117.816C45.803 117.573 45.4994 117.391 45.1957 117.391C44.8921 117.391 44.467 117.513 44.2848 117.756C44.1026 111.258 43.6775 104.82 43.0095 98.3831C43.3131 98.5653 43.7382 98.6868 44.1633 98.5653C44.5277 98.4439 44.8313 98.1402 44.9528 97.7759C45.0135 97.5329 44.8921 97.2293 44.7706 96.9864C44.6491 96.8042 44.5277 96.622 44.3455 96.4398C44.5884 96.5006 44.7706 96.622 44.9528 96.8042C45.4386 97.29 45.5599 98.0793 45.1956 98.6866Z" fill="white"/>
<path d="M48.9003 124.496C48.8396 125.286 48.293 126.014 47.5642 126.379C46.8355 126.743 43.6776 126.5 42.9488 126.136C38.9407 127.229 35.3577 127.897 30.9852 127.654C30.4993 128.079 29.4669 127.533 29.224 126.925C29.1633 126.804 29.1633 126.682 29.1633 126.622C29.1633 126.075 29.5884 125.529 30.135 125.468C29.8313 125.225 29.7706 124.678 30.0135 124.314C30.2564 123.95 30.7422 123.828 31.1066 124.071C36.5115 123.464 37.7261 122.31 42.2201 122.188C42.3415 121.46 43.0703 120.184 43.799 120.124C44.5278 120.063 45.3173 120.488 45.6209 121.156C46.2282 121.338 46.8355 121.642 47.3213 121.946C47.5035 122.067 47.6857 122.188 47.8679 122.31C48.4752 122.796 48.961 123.585 48.9003 124.496Z" fill="white"/>
<path d="M48.9003 124.496C48.8396 125.286 48.293 126.014 47.5642 126.379C46.8355 126.743 43.6776 126.5 42.9488 126.136C38.9407 127.229 35.3577 127.897 30.9852 127.654C30.4993 128.079 29.4669 127.533 29.224 126.925C29.1633 126.804 29.1633 126.682 29.1633 126.622C29.3455 126.925 29.6491 127.107 30.0135 127.168C30.4386 127.229 30.9244 127.107 31.2281 126.804C33.2321 127.107 35.2969 126.864 37.3617 126.622C39.3658 126.379 41.4306 126.136 43.0703 125.043C44.2241 125.528 45.5602 125.589 46.7748 125.225C47.1999 125.103 47.6857 124.86 47.8679 124.435C48.0501 124.071 48.0501 123.646 47.9286 123.281C47.8071 122.856 47.625 122.431 47.3213 122.006C47.5035 122.128 47.6857 122.249 47.8679 122.371C48.4752 122.796 48.961 123.585 48.9003 124.496Z" fill="white"/>
<path d="M56.7951 76.3389C56.127 76.6425 55.5197 76.5211 55.0946 75.9745C52.4225 81.1364 49.2039 86.1769 45.8638 90.9137C46.2889 90.853 46.714 91.2781 46.8355 91.7032C46.9569 92.1283 46.714 92.6141 46.4104 92.857C46.3496 92.9178 46.2282 92.9785 46.1674 92.9785C45.8638 93.0999 45.4994 93.0999 45.1958 93.0392C44.8921 92.9785 44.6492 92.857 44.467 92.6141C44.2848 92.3712 44.2241 92.1283 44.3456 91.8854C43.8597 92.1283 43.2524 92.189 42.7666 91.9461C42.2808 91.7032 41.9164 91.1566 41.9164 90.6101C41.9164 90.0635 42.3415 89.5169 42.8881 89.3955C43.4346 89.274 44.1026 89.7599 44.2241 90.2457C47.8071 85.6303 50.9043 80.5899 53.3335 75.2458C52.4833 75.1243 51.6938 74.1526 51.876 73.3024C52.0582 72.4522 52.9691 71.845 53.8193 72.0272C54.6695 72.2093 55.2768 73.181 55.0339 74.0312C55.3376 73.849 55.6412 73.6668 56.0056 73.5454C56.3699 73.4239 56.7343 73.4239 57.038 73.5454C57.2201 73.6061 57.3416 73.7275 57.4631 73.9097C57.5845 74.0919 57.706 74.3348 57.706 74.517C57.8274 75.3672 57.4023 76.0959 56.7951 76.3389Z" fill="white"/>
<path d="M56.7951 76.3389C56.127 76.6425 55.5197 76.5211 55.0946 75.9745C52.4225 81.1364 49.2039 86.1769 45.8638 90.9137C46.2889 90.853 46.714 91.2781 46.8355 91.7032C46.9569 92.1283 46.714 92.6141 46.4104 92.857C46.3496 92.9178 46.2282 92.9785 46.1674 92.9785C46.3496 92.7963 46.471 92.5532 46.471 92.3103C46.471 92.0066 46.2888 91.703 46.0459 91.5208C45.803 91.3386 45.3778 91.1564 45.1349 91.3386C48.718 85.9338 52.1188 80.4682 55.3982 74.8204C55.5803 75.1848 55.8233 75.4885 56.1877 75.6099C56.552 75.7314 56.9771 75.6706 57.2808 75.367C57.463 75.1848 57.5844 74.8812 57.5844 74.6382C57.5844 74.3953 57.5844 74.2131 57.5237 73.9702C57.6451 74.1524 57.7666 74.3953 57.7666 74.5775C57.8274 75.367 57.4023 76.0959 56.7951 76.3389Z" fill="white"/>
<path d="M49.872 92.4924C49.9935 93.1604 49.7506 93.7677 49.0825 94.0106C53.3336 97.958 57.3417 102.391 61.0462 106.885C61.1069 106.46 61.5928 106.156 62.0786 106.156C62.5644 106.156 62.9288 106.46 63.0503 106.885C63.111 107.007 63.111 107.067 63.111 107.189C63.1717 107.492 63.0503 107.857 62.9288 108.16C62.8074 108.403 62.5644 108.646 62.3215 108.707C62.0786 108.828 61.775 108.828 61.5928 108.646C61.7142 109.193 61.5928 109.8 61.2284 110.164C60.864 110.59 60.2567 110.772 59.7709 110.59C59.2243 110.407 58.86 109.922 58.86 109.375C58.9207 108.828 59.528 108.282 60.0745 108.343C56.5522 103.666 52.5441 99.3548 48.0502 95.5289C47.6858 96.3183 46.5926 96.8042 45.8032 96.4398C45.0137 96.0754 44.71 94.9823 45.0744 94.1928C45.4388 93.4034 46.5926 93.0997 47.3214 93.5248C47.1999 93.1605 47.1392 92.7961 47.0785 92.4317C47.0785 92.0673 47.1392 91.703 47.3821 91.3993C47.5036 91.2779 47.6858 91.1564 47.868 91.0957C48.0501 91.035 48.2931 90.9742 48.536 90.9742C49.204 91.2171 49.8113 91.8244 49.872 92.4924Z" fill="white"/>
<path d="M49.872 92.4924C49.9935 93.1604 49.7506 93.7677 49.0825 94.0106C53.3336 97.958 57.3417 102.391 61.0462 106.885C61.1069 106.46 61.5928 106.156 62.0786 106.156C62.5644 106.156 62.9288 106.46 63.0503 106.885C63.111 107.007 63.111 107.067 63.111 107.189C62.9895 107.007 62.7467 106.824 62.5038 106.763C62.2001 106.642 61.8965 106.763 61.6536 106.946C61.4106 107.128 61.1677 107.492 61.2285 107.796C56.9774 102.877 52.6049 98.14 48.0502 93.5246C48.4146 93.4639 48.8397 93.2817 49.0219 92.9781C49.2648 92.6744 49.2648 92.1886 49.0826 91.8849C48.9611 91.642 48.7182 91.4598 48.4753 91.3991C48.2931 91.3384 48.0502 91.2776 47.8073 91.2776C47.9895 91.2169 48.2324 91.1562 48.4753 91.1562C49.2041 91.2169 49.8113 91.8244 49.872 92.4924Z" fill="white"/>
<path d="M40.6406 19.1325C42.8269 16.5819 43.4949 12.5131 41.4909 10.8127C39.4868 9.05158 35.5394 10.3269 33.3531 12.8168C31.1669 15.3674 31.5313 18.1609 33.5353 19.922C35.6001 21.6224 38.4544 21.6224 40.6406 19.1325Z" fill="#281B4F"/>
<path d="M52.7868 9.17308C49.9325 7.47268 45.8029 7.47268 44.4062 9.71964C43.0094 12.0273 44.9527 15.671 47.807 17.3714C50.6613 19.0718 53.3941 18.2216 54.7908 15.9747C56.1876 13.7277 55.6411 10.8735 52.7868 9.17308Z" fill="#281B4F"/>
<path d="M43.3739 18.2211C43.7383 17.6745 44.467 17.5531 45.0743 17.6138C45.378 17.6745 45.7423 17.7353 45.9852 17.9175C46.2282 18.0996 46.4711 18.3426 46.5318 18.7069C46.5926 19.0106 46.4104 19.375 46.1067 19.4964C45.8638 19.6179 45.6209 19.5571 45.378 19.4357C45.135 19.3142 44.9529 19.1928 44.7707 19.0106C44.8314 19.3749 44.3456 19.6786 44.0419 19.7393C43.7383 19.8 43.3739 19.5571 43.1917 19.1928C43.131 18.8891 43.1917 18.5247 43.3739 18.2211Z" fill="#281B4F"/>
</svg>
