<svg width="122" height="125" viewBox="0 0 122 125" fill="none" xmlns="http://www.w3.org/2000/svg">
<path d="M69.7319 82.2807C67.6456 79.0177 66.6593 74.8661 66.8145 70.8301C66.8817 69.5786 67.1379 68.414 67.6606 67.3532C66.9049 67.006 66.2474 66.4995 65.7323 65.7982C65.3518 65.3074 65.0593 64.7456 65.0541 64.1113C65.036 63.248 65.595 62.5571 66.2239 62.2885C66.8969 61.9843 67.6837 62.0671 68.3825 62.2209C67.8804 61.7486 67.8286 60.8327 68.1003 60.2142C68.4497 59.6127 69.045 59.2915 69.6532 59.1992C70.2951 59.1596 70.9163 59.2963 71.5271 59.5212C71.4882 58.8343 71.571 58.129 71.8428 57.5104C72.1145 56.8919 72.6088 56.4127 73.1834 56.2679C73.7916 56.1756 74.4698 56.5058 74.7079 57.1913C74.7881 56.1688 75.2565 55.2318 75.9941 54.7158C76.3461 54.4315 76.7654 54.2524 77.2313 54.3549C77.7412 54.4219 78.2097 54.8416 78.4582 55.439C78.5591 55.5969 78.6161 55.7903 78.673 55.9838C78.7766 56.4588 78.8025 56.9167 78.7844 57.4102C80.0759 56.9257 81.5149 56.8806 82.9023 57.2764C86.487 58.2915 89.8622 60.7529 92.0157 64.1212C96.4911 71.121 94.2346 79.4882 88.0748 84.4638C84.5549 87.307 80.5225 88.4093 76.8731 87.6061C74.1891 87.0605 71.6499 85.2806 69.7319 82.2807Z" fill="white"/>
<path d="M69.7319 82.2807C67.6456 79.0177 66.6593 74.8661 66.8145 70.8301C66.8817 69.5786 67.1379 68.414 67.6606 67.3532C66.9049 67.006 66.2474 66.4995 65.7323 65.7982C65.3518 65.3074 65.0593 64.7456 65.0541 64.1113C65.036 63.248 65.595 62.5571 66.2239 62.2885C66.8969 61.9843 67.6837 62.0671 68.3825 62.2209C67.8804 61.7486 67.8286 60.8327 68.1003 60.2142C68.4497 59.6127 69.045 59.2915 69.6532 59.1992C70.2951 59.1596 70.9163 59.2963 71.5271 59.5212C71.4882 58.8343 71.571 58.129 71.8428 57.5104C72.1145 56.8919 72.6088 56.4127 73.1834 56.2679C73.7916 56.1756 74.4698 56.5058 74.7079 57.1913C74.7881 56.1688 75.2565 55.2318 75.9941 54.7158C76.3461 54.4315 76.7654 54.2524 77.2313 54.3549C77.7412 54.4219 78.2097 54.8416 78.4582 55.439C78.3132 55.3167 78.2019 55.2471 78.0129 55.1603C77.591 55.0222 77.1381 55.1487 76.7861 55.433C76.4341 55.7173 76.1935 56.0713 75.9864 56.478C75.562 57.3795 75.3601 58.4205 75.4793 59.4416C75.2308 58.8442 74.8943 58.3179 74.5138 57.8272C74.3015 57.5996 74.0893 57.3719 73.7787 57.3036C73.3905 57.2181 72.9608 57.4854 72.7978 57.8565C72.5467 58.2987 72.4406 58.8633 72.4899 59.462C72.5054 60.0081 72.6763 60.5884 72.8135 61.1161C72.0318 60.3109 70.9551 59.9834 69.9379 60.1666C69.6506 60.239 69.3633 60.3115 69.177 60.5418C68.957 60.7195 68.8043 61.0025 68.8405 61.3722C68.8431 61.6894 69.0114 61.9525 69.1796 62.2157C69.4152 62.5841 69.7284 62.9696 70.0519 63.2669C69.0528 62.9566 68.0124 62.9989 67.1298 63.3926C66.9202 63.4821 66.7105 63.5716 66.6018 63.819C66.4931 64.0665 66.4957 64.3836 66.62 64.6823C66.7442 64.981 66.9565 65.2086 67.1791 65.348C67.9711 66.065 68.9598 66.4635 69.9123 66.4923C67.8523 70.4708 67.7749 75.8806 69.6593 80.1846C71.171 83.5926 73.8396 86.3055 76.9507 87.6234C74.189 87.0607 71.6499 85.2806 69.7319 82.2807Z" fill="white"/>
<path d="M52.8437 32.0736C52.9058 31.5445 53.3898 31.1536 53.8143 31.6088C59.8814 38.2806 65.1152 45.9448 69.28 54.233C69.5725 54.7948 69.1895 55.3436 68.8246 55.399C68.6253 55.4003 68.3923 55.3491 68.2681 55.0504C64.1705 46.8675 59.0481 39.273 53.0482 32.7065C52.8696 32.5315 52.823 32.2499 52.8437 32.0736Z" fill="white"/>
<path d="M52.8437 32.0736C59.1335 38.8848 64.6131 46.8293 68.8582 55.4517C68.6589 55.4531 68.4259 55.4018 68.3017 55.1031C64.2041 46.9202 59.0817 39.3257 53.0818 32.7592C52.8696 32.5316 52.823 32.2499 52.8437 32.0736Z" fill="white"/>
<path d="M57.7654 58.3466C57.5506 57.8019 57.6127 57.2729 57.7317 56.9373C57.8947 56.5661 58.0914 56.2476 58.3554 56.0344C58.5314 55.8922 58.8084 55.908 58.9766 56.1711C59.1112 56.3816 59.0801 56.6462 58.9818 56.8054C58.8835 56.9647 58.7851 57.1239 58.7204 57.3358C58.7204 57.3358 58.6764 57.3713 58.7101 57.424C58.6894 57.6003 58.7023 57.8293 58.78 57.8464C58.78 57.8464 58.8913 57.9161 59.0466 57.9503C59.2019 57.9844 59.4451 57.9475 59.6548 57.858C60.1077 57.7316 60.4934 57.4999 60.923 57.2327C61.3526 56.9654 61.7926 56.61 62.2326 56.2546L64.8621 54.2104C65.7421 53.4996 66.5781 52.8244 67.458 52.1136C69.174 50.7275 70.8563 49.2888 72.5049 47.7975C73.3512 47.0341 74.1535 46.3062 74.6892 45.4744C74.8316 45.2796 74.9403 45.0322 74.961 44.8559C75.0153 44.7322 74.992 44.5914 75.0024 44.5032C74.9351 44.3979 74.8678 44.2927 74.7125 44.2585L74.6348 44.2414C74.5132 44.2598 74.3579 44.2257 74.2259 44.3323C74.0163 44.4218 73.7497 44.3179 73.6591 44.0719C73.5685 43.8258 73.6332 43.6139 73.8092 43.4718C74.0731 43.2585 74.4484 43.115 74.803 43.1478C75.2016 43.1451 75.6908 43.3884 75.916 43.845C76.1852 44.2661 76.2784 44.8293 76.1826 45.3057C76.0973 45.6939 75.9782 46.0295 75.8152 46.4006C75.194 47.6206 74.3374 48.4722 73.5687 49.2527C71.977 50.9375 70.2844 52.4643 68.5245 53.8859C67.6445 54.5967 66.7645 55.3075 65.8509 55.9657C64.9373 56.6238 64.0237 57.282 63.0764 57.8875C62.1292 58.4931 61.1716 59.1868 59.8671 59.4423C59.5462 59.4622 59.2252 59.482 58.837 59.3965C58.6817 59.3623 58.4487 59.3111 58.2701 59.1361C58.1019 58.8729 57.856 58.5927 57.7654 58.3466Z" fill="white"/>
<path d="M58.6716 58.094C58.537 57.8835 58.5344 57.5664 58.643 57.3189L58.6871 57.2834C58.6871 57.2834 58.6431 57.3189 58.6767 57.3716C58.656 57.5479 58.669 57.7769 58.7466 57.794C58.7466 57.794 58.8579 57.8637 59.0132 57.8979C59.1685 57.932 59.4118 57.8951 59.6214 57.8056C60.0744 57.6792 60.46 57.4475 60.8896 57.1803C61.3193 56.913 61.7592 56.5576 62.1992 56.2023L64.8288 54.158C65.7087 53.4472 66.5447 52.772 67.4247 52.0612C69.1406 50.6751 70.8229 49.2364 72.4715 47.7451C73.3178 46.9817 74.1202 46.2538 74.6559 45.422C74.7982 45.2272 74.9069 44.9798 74.9276 44.8035C74.982 44.6798 74.9587 44.539 74.969 44.4508C74.9017 44.3455 74.8344 44.2403 74.6791 44.2061L74.6015 44.189C74.9664 44.1337 75.2692 44.6073 75.2615 45.0126C75.2538 45.4179 75.0131 45.772 74.8164 46.0905C73.5896 47.7199 72.117 49.069 70.6211 50.2774C68.0588 52.4269 65.3853 54.5066 62.7221 56.4982C61.7644 57.1919 60.7628 57.9212 59.6473 58.2636C59.316 58.3715 58.8735 58.4098 58.6716 58.094Z" fill="white"/>
<path d="M55.8211 52.1754C55.6399 51.6833 55.6916 51.2424 55.8107 50.9068C55.9297 50.5712 56.1601 50.3054 56.38 50.1277C56.556 49.9855 56.833 50.0012 57.0012 50.2644C57.1358 50.4749 57.1488 50.7039 57.0064 50.8987L56.9624 50.9342C56.8641 51.0935 56.7657 51.2527 56.745 51.429C56.7347 51.5172 56.7347 51.5172 56.7244 51.6054C56.758 51.658 56.7477 51.7462 56.7917 51.7106C56.758 51.658 56.7916 51.7106 56.9469 51.7448C57.0686 51.7264 57.2679 51.725 57.4335 51.671C57.7648 51.5631 58.1065 51.3669 58.4921 51.1352C58.8441 50.8509 59.2297 50.6192 59.5817 50.3349L61.7816 48.5579C62.5296 47.9537 63.2336 47.3851 63.9815 46.7809C65.4335 45.6081 66.8518 44.3826 68.2701 43.1572C68.9844 42.5004 69.6883 41.9318 70.1257 41.2592C70.2241 41.1 70.3224 40.9407 70.3431 40.7644C70.3975 40.6407 70.3638 40.588 70.4078 40.5525C70.3742 40.4999 70.3405 40.4472 70.2292 40.3775C70.1956 40.3249 70.1516 40.3604 70.0739 40.3433C69.9963 40.3262 69.8746 40.3447 69.7866 40.4158C69.577 40.5053 69.3104 40.4014 69.2198 40.1553C69.1292 39.9093 69.1939 39.6974 69.3699 39.5553C69.5899 39.3776 69.8875 39.2169 70.2421 39.2498C70.5967 39.2826 71.0522 39.4733 71.2878 39.8417C71.557 40.2627 71.6165 40.7733 71.5311 41.1615C71.4897 41.5142 71.337 41.7972 71.218 42.1328C70.6952 43.1935 69.9369 43.8859 69.3339 44.6124C67.9725 46.0313 66.5879 47.3093 65.092 48.5177C64.344 49.1219 63.596 49.726 62.8144 50.2776C62.0328 50.8291 61.2512 51.3807 60.5135 51.8967C59.6983 52.3956 58.8726 52.9827 57.7778 53.1488C57.5345 53.1856 57.2136 53.2055 56.8694 53.0845C56.7141 53.0503 56.5251 52.9635 56.3362 52.8767C56.1239 52.6491 55.9117 52.4214 55.8211 52.1754Z" fill="white"/>
<path d="M56.7583 51.6577C56.7246 51.6051 56.735 51.5169 56.735 51.5169C56.7686 51.5696 56.7583 51.6577 56.8023 51.6222C56.7686 51.5696 56.8023 51.6222 56.9576 51.6564C57.0792 51.6379 57.2785 51.6366 57.4442 51.5826C57.7755 51.4746 58.1171 51.2784 58.5027 51.0468C58.8547 50.7624 59.2403 50.5308 59.5923 50.2464L61.7922 48.4694C62.5402 47.8653 63.2442 47.2966 63.9922 46.6924C65.4441 45.5196 66.8624 44.2942 68.2807 43.0687C68.995 42.4119 69.699 41.8433 70.1364 41.1708C70.2347 41.0115 70.3331 40.8523 70.3537 40.6759C70.4081 40.5522 70.3744 40.4996 70.4184 40.464C70.3848 40.4114 70.3511 40.3588 70.2398 40.2891C70.2062 40.2364 70.1622 40.272 70.0846 40.2549C70.2502 40.2009 70.4055 40.2351 70.5504 40.3574C70.7627 40.585 70.7213 40.9377 70.6462 41.2378C70.5376 41.4852 70.3512 41.7155 70.1312 41.8932C66.3862 45.6365 62.429 49.1523 57.9774 51.7904C57.7677 51.8799 57.5477 52.0576 57.3484 52.059C57.1491 52.0603 56.8489 51.9038 56.7583 51.6577Z" fill="white"/>
<path d="M54.3739 45.8418C54.2264 45.4023 54.2678 45.0497 54.3868 44.7141C54.4955 44.4666 54.6818 44.2363 54.8578 44.0942C55.0338 43.952 55.3108 43.9677 55.479 44.2309C55.58 44.3888 55.5929 44.6177 55.4946 44.777L55.4506 44.8125C55.3962 44.9362 55.3419 45.06 55.3315 45.1481C55.3315 45.1481 55.3315 45.1481 55.3755 45.1126C55.4532 45.1297 55.5748 45.1112 55.6628 45.0401C56.1598 44.8782 56.6877 44.4517 57.2157 44.0252L60.5596 41.3242C61.6595 40.4357 62.7595 39.5472 63.8258 38.6061C64.3641 38.0914 64.8921 37.6649 65.2648 37.2043C65.3191 37.0806 65.4071 37.0095 65.4615 36.8858C65.5055 36.8502 65.5055 36.8502 65.5055 36.8502C65.5055 36.8502 65.5495 36.8147 65.4718 36.7976C65.4382 36.745 65.3942 36.7805 65.3165 36.7634C65.3165 36.7634 65.2389 36.7463 65.1949 36.7819L65.1509 36.8174C64.9413 36.907 64.685 36.7149 64.5944 36.4688C64.5375 36.2754 64.5685 36.0109 64.7445 35.8687C64.9205 35.7266 65.1741 35.6015 65.4951 35.5817C65.772 35.5974 66.1499 35.771 66.3854 36.1395C66.621 36.5079 66.6909 36.9303 66.6158 37.2303C66.5408 37.5304 66.4761 37.7422 66.3674 37.9897C65.9093 38.8385 65.4047 39.4058 64.9 39.9731C63.8906 41.1077 62.7803 42.0843 61.6364 43.0084C61.0644 43.4704 60.4924 43.9324 59.8868 44.3418C59.2812 44.7512 58.6755 45.1605 58.0699 45.5699C57.4643 45.9793 56.8146 46.4242 55.8855 46.5363C55.6422 46.5732 55.4429 46.5746 55.1323 46.5062C54.977 46.472 54.8657 46.4023 54.6768 46.3155C54.6768 46.3155 54.4645 46.0879 54.3739 45.8418Z" fill="white"/>
<path d="M55.3652 45.2011C55.4868 45.1826 55.6085 45.1642 55.7301 45.1457C56.2271 44.9838 56.7551 44.5573 57.283 44.1308L60.6269 41.4298C61.7269 40.5413 62.8268 39.6528 63.8931 38.7117C64.4314 38.197 64.9594 37.7705 65.3321 37.3099C65.3865 37.1862 65.4745 37.1151 65.5288 36.9914C65.5728 36.9558 65.5728 36.9558 65.5728 36.9558C65.5728 36.9558 65.6168 36.9203 65.5392 36.9032C65.5055 36.8506 65.4615 36.8861 65.3839 36.869C65.4718 36.7979 65.6271 36.8321 65.6944 36.9374C65.8394 37.0597 65.8523 37.2887 65.754 37.448C65.6997 37.5717 65.6013 37.7309 65.4693 37.8375C62.581 40.7293 59.4028 43.3763 55.932 45.4615C55.8 45.5681 55.6344 45.6221 55.5231 45.5524C55.4558 45.4471 55.3549 45.2892 55.3652 45.2011Z" fill="white"/>
<path d="M46.5858 37.2085C47.0336 37.8045 47.5254 38.365 48.1699 38.6425C48.2475 38.6596 48.3588 38.7293 48.4365 38.7464C48.9696 38.9542 49.6115 38.9146 50.0515 38.5592C50.7555 37.9906 50.846 36.8799 50.7269 35.8588C50.5638 34.8732 50.2454 33.8534 50.2816 32.8664C50.3876 30.9451 52.1476 29.5235 53.5814 28.8442C55.1472 28.0583 57.0858 28.1684 58.6233 29.3208C59.5033 29.9667 60.4636 30.9469 61.4135 30.6585C62.0321 30.4781 62.4021 29.7003 62.4513 28.9423C62.5004 28.1843 62.2726 27.4106 62.0345 26.725C61.0612 24.1592 59.415 21.8974 57.409 20.3253C57.1191 20.0806 56.7852 19.8715 56.4513 19.6623C56.0398 19.4361 55.6179 19.298 55.1857 19.2481C54.3548 19.2009 53.5059 19.6472 53.2808 20.5473C52.991 21.6593 53.7985 22.9224 53.5087 24.0345C53.3483 24.7227 52.8539 25.2019 52.37 25.5928C51.4356 26.4273 50.434 27.1565 49.3988 27.8332C48.4955 28.4032 47.4369 28.939 46.4146 28.4878C45.8141 28.1748 45.255 27.509 44.6028 27.6368C44.1938 27.7277 43.9092 28.1173 43.7798 28.541C43.6504 28.9648 43.6659 29.5109 43.7358 29.9333C43.9792 32.6099 45.0302 35.1928 46.5858 37.2085ZM48.356 32.9853C48.9073 34.0563 49.293 35.1814 49.4691 36.3959C49.5157 36.6775 49.5183 36.9947 49.4872 37.2592C49.4122 37.5592 49.2258 37.7896 49.0162 37.8791C48.6849 37.9871 48.3614 37.6898 48.0715 37.445C46.8316 36.132 45.5737 33.9557 45.5244 32.0002C45.5295 31.2778 45.9902 30.7461 46.6787 30.9881C47.4552 31.159 48.0065 32.23 48.356 32.9853ZM59.5238 24.3635C60.2511 25.2924 60.8464 26.3279 61.2321 27.4529C61.3227 27.699 61.403 28.0332 61.4056 28.3503C61.4082 28.6675 61.2555 28.9505 61.0795 29.0926C60.7819 29.2532 60.404 29.0796 60.0701 28.8704C58.6336 27.8759 56.9796 26.0195 56.6431 24.1365C56.4929 23.3798 56.8423 22.7783 57.5515 22.844C58.271 22.8215 59.032 23.803 59.5238 24.3635Z" fill="white"/>
<path d="M43.7358 29.9333C43.7099 29.4754 43.6504 28.9648 43.7798 28.541C43.9092 28.1173 44.2378 27.6922 44.6028 27.6368C45.255 27.509 45.8141 28.1748 46.4146 28.4878C47.3929 28.9745 48.4955 28.4032 49.3988 27.8332C50.434 27.1565 51.402 26.3747 52.37 25.5928C52.8539 25.2019 53.3483 24.7227 53.5087 24.0345C53.7649 22.8698 52.9909 21.6593 53.2808 20.5473C53.5059 19.6472 54.3548 19.2009 55.1857 19.2481C55.6179 19.298 56.0398 19.4361 56.4513 19.6623C55.8638 19.5782 55.2996 19.6349 54.9709 20.06C54.5542 20.5562 54.5051 21.3142 54.5776 22.0538C54.6501 22.7933 54.8106 23.4618 54.6941 24.1145C54.5363 25.1199 53.778 25.8123 53.0637 26.4691C51.9973 27.4102 50.887 28.3869 49.6861 29.1175C48.9589 29.5453 48.1539 29.956 47.2998 29.768C46.645 29.5787 45.9539 29.0196 45.2913 29.2355C44.916 29.3791 44.665 29.8213 44.6133 30.2621C44.5615 30.703 44.6211 31.2135 44.691 31.6359C44.9706 33.3255 45.4055 35.0493 46.3037 36.5585C46.8317 37.4887 47.5694 38.3295 48.4261 38.8346C48.3485 38.8175 48.2372 38.7478 48.1595 38.7307C47.559 38.4176 47.0233 37.8927 46.5755 37.2967C45.0302 35.1928 43.9792 32.6099 43.7358 29.9333Z" fill="white"/>
<path d="M117.373 68.3004C117.663 68.5451 117.909 68.8253 118.022 69.2122C118.136 69.599 118.007 70.0228 117.709 70.1834C117.412 70.344 117.078 70.1348 116.822 69.9428C116.042 69.4547 115.341 68.9838 114.562 68.4957C114.15 68.2695 113.638 67.8853 113.666 67.3037C113.684 66.8102 113.948 66.597 114.303 66.6298C115.333 66.6756 116.547 67.5307 117.373 68.3004Z" fill="white"/>
<path d="M114.653 70.0982C115.572 71.431 116.48 72.8521 116.925 74.4877C117.073 74.9272 117.088 75.4733 116.781 75.722C116.605 75.8642 116.328 75.8485 116.105 75.709C115.882 75.5696 115.704 75.3946 115.569 75.1841C114.886 74.2197 114.456 73.1302 113.949 72.0236C113.734 71.4788 113.475 70.9696 113.183 70.4078C113.025 70.0564 112.709 69.3538 113.25 69.1563C113.835 68.9232 114.35 69.6245 114.653 70.0982Z" fill="white"/>
<path d="M112.173 71.5426C112.386 71.7702 112.51 72.0689 112.634 72.3676C112.95 73.0702 113.299 73.8255 113.615 74.5281C114.122 75.6347 114.619 76.8295 114.839 78.0085C114.886 78.2901 114.933 78.5717 114.858 78.8718C114.827 79.1363 114.64 79.3666 114.431 79.4561C114.187 79.493 113.921 79.3891 113.708 79.1615C113.496 78.9339 113.406 78.6879 113.281 78.3892C112.526 76.6852 111.946 74.8391 111.521 73.0271C111.451 72.6047 111.179 71.8665 111.342 71.4954C111.472 71.0716 111.927 71.2624 112.173 71.5426Z" fill="white"/>
<path d="M109.795 73.1447C110.318 74.7974 110.841 76.4501 110.877 78.1766C110.89 78.4056 110.903 78.6346 110.794 78.882C110.73 79.0939 110.554 79.236 110.354 79.2374C110.033 79.2572 109.798 78.8888 109.64 78.5375C109.2 77.5361 108.892 76.4282 108.739 75.3544C108.646 74.7912 108.597 74.1925 108.581 73.6464C108.579 73.3292 108.506 72.5897 108.77 72.3765C109.308 71.8618 109.681 72.7579 109.795 73.1447Z" fill="white"/>
<path d="M107.742 71.2911C107.755 71.5201 107.69 71.732 107.626 71.9439C107.235 72.898 106.844 73.8521 106.487 74.8589C106.422 75.0708 106.314 75.3182 106.104 75.4077C105.894 75.4973 105.604 75.2526 105.514 75.0065C105.423 74.7605 105.421 74.4433 105.452 74.1788C105.599 73.2616 105.902 72.3785 106.427 71.6349C106.614 71.4046 106.821 70.9979 107.074 70.8728C107.284 70.7833 107.695 71.0095 107.742 71.2911Z" fill="white"/>
<path d="M107.468 68.8787C107.193 67.8234 106.953 66.8207 106.678 65.7654C106.541 65.2377 106.414 64.6219 106.52 64.0574C106.807 62.6282 107.757 62.3398 108.767 62.562C109.742 62.7315 110.822 63.3761 111.469 63.9707C112.339 64.7048 113.079 65.8627 113.056 67.0786C113.056 68.4354 112.124 69.587 111.223 70.4741C110.915 70.7229 110.641 71.0243 110.222 71.2034C110.178 71.2389 110.056 71.2574 110.012 71.2929C109.593 71.472 109.073 71.4932 108.627 71.2143C107.97 70.7078 107.685 69.7406 107.468 68.8787Z" fill="white"/>
<path d="M107.468 68.8787C107.193 67.8234 106.953 66.8207 106.678 65.7654C106.541 65.2377 106.414 64.6219 106.52 64.0574C106.807 62.6282 107.757 62.3398 108.767 62.562C108.358 62.6529 107.939 62.8317 107.732 63.2384C107.294 63.9109 107.457 64.8965 107.631 65.7939C107.861 66.8848 108.102 67.8875 108.332 68.9784C108.516 69.7876 108.767 70.7021 109.445 71.0323C109.712 71.1362 110.023 71.2046 110.266 71.1677C110.222 71.2032 110.1 71.2216 110.056 71.2572C109.637 71.4362 109.117 71.4574 108.672 71.1785C107.97 70.7076 107.685 69.7406 107.468 68.8787Z" fill="white"/>
<path d="M77.7327 45.33C77.5308 45.0142 77.3833 44.5747 77.4687 44.1865C77.479 44.0983 77.5334 43.9746 77.6214 43.9035C77.8621 43.5495 78.2813 43.3704 78.6126 43.2625C78.1907 43.1244 77.9319 42.6152 77.9396 42.2099C77.9577 41.7164 78.2424 41.3268 78.5841 41.1306C78.9257 40.9345 79.3683 40.8962 79.7902 41.0343C79.9455 41.0685 80.1344 41.1553 80.2354 41.3132C80.4036 41.5763 80.4062 41.8935 80.2975 42.1409C80.1888 42.3883 80.0025 42.6187 79.8161 42.849C83.965 42.4507 88.3314 42.9142 92.4183 44.4017C92.2035 43.8569 92.3199 43.2042 92.7159 42.8843C92.8919 42.7422 93.1352 42.7053 93.3785 42.6684C93.8987 42.6472 94.4112 43.0314 94.67 43.5406C94.9289 44.0498 94.9677 44.7367 94.7167 45.1789C94.4993 45.6737 93.9713 46.1002 93.4614 46.0332C94.005 46.1528 94.3544 46.9081 94.282 47.5253C94.2406 47.878 94.0542 48.1083 93.8239 48.3742C93.6039 48.5519 93.3943 48.6414 93.1173 48.6257C92.5531 48.6824 92.007 48.2456 91.6705 47.7193C91.5359 47.5088 91.4453 47.2627 91.4323 47.0338C91.4194 46.8048 91.4944 46.5047 91.6704 46.3626C87.6845 45.033 83.5821 44.3562 79.5186 44.3663C79.8188 44.5229 80.1242 45.3137 80.0492 45.6137C79.9742 45.9138 79.6662 46.1625 79.3789 46.235C79.0916 46.3074 78.7474 46.1864 78.5248 46.047C78.2582 45.9431 77.9346 45.6458 77.7327 45.33Z" fill="white"/>
<path d="M77.7327 45.33C77.5308 45.0142 77.3833 44.5747 77.4687 44.1865C77.479 44.0983 77.5334 43.9746 77.6214 43.9035C77.6007 44.0799 77.58 44.2563 77.6033 44.3971C77.6395 44.7669 77.8311 45.1708 78.1313 45.3274C78.4316 45.4839 78.8741 45.4456 79.0268 45.1627C79.2235 44.8442 79.164 44.3336 78.9077 44.1415C83.4242 44.005 88.0131 44.608 92.421 46.0757C91.9913 46.3429 91.8878 47.2246 92.1907 47.6982C92.4495 48.2075 93.0604 48.4324 93.5806 48.4112C93.7023 48.3927 93.7462 48.3572 93.8679 48.3387C93.6479 48.5164 93.4383 48.606 93.1613 48.5902C92.5971 48.6469 92.051 48.2102 91.7145 47.6839C91.5799 47.4734 91.4893 47.2273 91.4763 46.9983C91.4634 46.7694 91.5384 46.4693 91.7144 46.3271C87.7285 44.9976 83.6261 44.3208 79.5626 44.3309C79.8628 44.4874 80.1682 45.2782 80.0932 45.5783C80.0182 45.8783 79.7102 46.1271 79.4229 46.1995C79.1356 46.272 78.7913 46.151 78.5688 46.0116C78.2582 45.9432 77.9346 45.6458 77.7327 45.33Z" fill="white"/>
<path d="M93.7386 48.7626C93.7463 48.3573 93.9094 47.9862 94.1733 47.773C94.2613 47.7019 94.339 47.719 94.427 47.6479C94.7919 47.5925 95.2475 47.7833 95.6254 47.9569C95.3898 47.5885 95.4623 46.9713 95.7366 46.6699C96.0109 46.3685 96.4639 46.242 96.8418 46.4157C97.2636 46.5537 97.5872 46.8511 97.8564 47.2721C97.9573 47.43 98.0583 47.5879 98.0712 47.8169C98.0738 48.134 97.8875 48.3643 97.6338 48.4894C97.3802 48.6145 97.1369 48.6514 96.86 48.6356C100.339 51.572 103.491 55.2507 105.829 59.4283C105.935 58.8637 106.452 58.5254 106.962 58.5924C107.195 58.6437 107.418 58.7831 107.596 58.9581C107.987 59.3607 108.192 59.9936 108.13 60.5227C108.024 61.0872 107.685 61.6005 107.188 61.7625C106.691 61.9244 106.07 61.7877 105.679 61.3851C106.015 61.9114 105.922 62.705 105.482 63.0604C105.262 63.2381 104.975 63.3105 104.62 63.2777C104.343 63.2619 104.121 63.1225 103.864 62.9304C103.396 62.5108 103.158 61.8252 103.23 61.208C103.261 60.9435 103.326 60.7316 103.424 60.5724C103.567 60.3776 103.787 60.1999 103.976 60.2867C101.651 56.3381 98.8531 52.6922 95.6384 49.5426C95.7626 49.8413 95.5815 50.7059 95.3278 50.8309C95.0742 50.956 94.7196 50.9232 94.4634 50.7311C94.2071 50.539 94.0052 50.2233 93.881 49.9246C93.8007 49.5904 93.7308 49.168 93.7386 48.7626Z" fill="white"/>
<path d="M93.7388 48.7624C93.7465 48.3571 93.9096 47.986 94.1736 47.7727C94.2616 47.7017 94.3392 47.7188 94.4272 47.6477C94.2952 47.7543 94.2072 47.8254 94.1089 47.9846C93.9122 48.3031 93.8604 48.744 94.0183 49.0953C94.1762 49.4466 94.4998 49.7439 94.8311 49.636C95.152 49.6162 95.403 49.174 95.2891 48.7871C98.9154 52.163 102.159 56.0877 104.742 60.5456C104.242 60.3904 103.66 60.9406 103.588 61.5578C103.515 62.1749 103.841 62.7894 104.243 63.1038C104.354 63.1736 104.431 63.1906 104.543 63.2604C104.266 63.2446 104.043 63.1052 103.787 62.9131C103.318 62.4934 103.08 61.8079 103.153 61.1907C103.184 60.9262 103.249 60.7143 103.347 60.5551C103.489 60.3603 103.709 60.1826 103.898 60.2694C101.574 56.3208 98.7757 52.6749 95.5609 49.5253C95.6852 49.824 95.5041 50.6886 95.2504 50.8136C94.9968 50.9387 94.6422 50.9059 94.3859 50.7138C94.1297 50.5217 93.9278 50.206 93.8036 49.9073C93.801 49.5901 93.731 49.1677 93.7388 48.7624Z" fill="white"/>
<path d="M50.9298 110.478C50.9221 110.883 50.9583 111.253 51.1602 111.568C51.3621 111.884 51.7297 112.146 52.0273 111.985C52.3249 111.825 52.4103 111.437 52.4517 111.084C52.5992 110.167 52.7467 109.249 52.8606 108.28C52.9226 107.75 52.9951 107.133 52.6042 106.731C52.2471 106.381 51.9598 106.453 51.7191 106.807C51.0953 107.71 50.9091 109.297 50.9298 110.478Z" fill="white"/>
<path d="M53.9218 109.418C54.2454 111.072 54.6906 112.707 55.5552 114.164C55.7907 114.532 56.1376 114.97 56.5128 114.827C56.7225 114.737 56.9088 114.507 56.9399 114.243C56.9709 113.978 56.958 113.749 56.9114 113.467C56.6913 112.288 56.184 111.182 55.7543 110.092C55.5394 109.548 55.3246 109.003 55.1537 108.423C55.0062 107.983 54.7344 107.245 54.2167 107.583C53.6551 107.957 53.7949 108.802 53.9218 109.418Z" fill="white"/>
<path d="M56.5698 108.236C56.5724 108.554 56.6967 108.852 56.8209 109.151C57.0927 109.889 57.4085 110.592 57.6803 111.33C58.1437 112.472 58.607 113.614 59.324 114.631C59.4586 114.842 59.6708 115.069 59.8934 115.209C60.116 115.348 60.393 115.364 60.613 115.186C60.8329 115.009 60.908 114.709 60.9054 114.391C60.9028 114.074 60.7785 113.776 60.6879 113.53C59.9761 111.79 59.0986 110.104 58.0788 108.614C57.8432 108.245 57.4834 107.578 57.0952 107.493C56.6733 107.355 56.5336 107.867 56.5698 108.236Z" fill="white"/>
<path d="M59.1864 107.32C60.0069 108.812 60.8275 110.304 61.9664 111.459C62.1113 111.582 62.2899 111.757 62.4788 111.843C62.6678 111.93 62.9111 111.893 63.0094 111.734C63.2398 111.468 63.0922 111.029 62.9343 110.677C62.4943 109.676 61.9326 108.693 61.2725 107.87C60.9257 107.431 60.5348 107.029 60.144 106.626C59.9318 106.399 59.4736 105.891 59.1087 105.946C58.6558 106.073 58.9845 107.004 59.1864 107.32Z" fill="white"/>
<path d="M59.2846 104.448C59.4192 104.658 59.6521 104.709 59.8074 104.743C60.7288 105.037 61.6503 105.33 62.6053 105.676C62.7943 105.763 63.0272 105.814 63.2032 105.672C63.3792 105.53 63.4206 105.177 63.33 104.931C63.2394 104.685 62.9832 104.493 62.7606 104.353C62.0255 103.83 61.1817 103.554 60.3509 103.506C60.0739 103.491 59.6417 103.441 59.3881 103.566C59.2121 103.708 59.0723 104.22 59.2846 104.448Z" fill="white"/>
<path d="M57.742 102.661C57.17 101.766 56.5979 100.871 56.0259 99.9766C55.723 99.503 55.3865 98.9767 54.9414 98.6978C53.7844 98.0361 52.9588 98.6232 52.4463 99.5958C51.9339 100.568 51.6674 101.821 51.6415 102.72C51.6183 103.936 51.9393 105.273 52.765 106.042C53.7356 106.934 55.1307 106.925 56.3135 106.688C56.7224 106.597 57.0874 106.542 57.429 106.345C57.473 106.31 57.5946 106.291 57.6386 106.256C58.0683 105.989 58.397 105.564 58.4927 105.087C58.6738 104.223 58.2131 103.398 57.742 102.661Z" fill="white"/>
<path d="M57.742 102.661C57.17 101.766 56.5979 100.871 56.0259 99.9766C55.723 99.503 55.3865 98.9767 54.9414 98.6978C53.7844 98.0361 52.9588 98.6232 52.4463 99.5958C52.7983 99.3115 53.1399 99.1154 53.5722 99.1654C54.359 99.2481 54.9414 100.055 55.4125 100.791C55.9845 101.686 56.6006 102.545 57.1726 103.44C57.6101 104.124 58.1148 104.914 57.9 105.726C57.825 106.026 57.6386 106.256 57.4523 106.486C57.4963 106.451 57.6179 106.432 57.6619 106.397C58.0916 106.13 58.4202 105.705 58.516 105.228C58.6738 104.223 58.2131 103.398 57.742 102.661Z" fill="white"/>
<path d="M60.6024 62.6793C60.4885 62.2924 60.2969 61.8884 59.9967 61.7319C59.919 61.7148 59.8077 61.6451 59.7301 61.628C59.3755 61.5952 58.9122 61.8098 58.6482 62.023C58.8113 61.6519 58.6404 61.0716 58.3169 60.7743C57.9933 60.4769 57.5171 60.4626 57.1418 60.6061C56.7665 60.7496 56.4818 61.1392 56.3188 61.5103C56.2204 61.6696 56.1558 61.8814 56.2127 62.0749C56.2593 62.3565 56.4716 62.5841 56.7381 62.688C57.0047 62.7919 57.2817 62.8076 57.525 62.7707C54.5616 65.9625 52.0693 69.8911 50.4441 74.2367C50.2293 73.6919 49.6288 73.3789 49.1758 73.5053C48.9325 73.5422 48.7566 73.6844 48.5702 73.9147C48.2415 74.3398 48.1251 74.9925 48.3399 75.5373C48.5108 76.1176 48.9793 76.5373 49.4788 76.6924C49.9783 76.8476 50.5969 76.6672 50.9256 76.2421C50.6642 76.7724 50.9257 77.5988 51.4485 77.8948C51.7047 78.0868 52.0257 78.067 52.3026 78.0828C52.5459 78.0459 52.7659 77.8682 52.9859 77.6905C53.3586 77.2298 53.475 76.5771 53.3145 75.9086C53.2576 75.7152 53.167 75.4691 52.9884 75.2941C52.8098 75.1192 52.5872 74.9797 52.3776 75.0692C54.0157 70.9526 56.2207 67.0965 58.8502 63.6955C58.8088 64.0482 59.1142 64.839 59.3808 64.9429C59.6811 65.0995 60.0124 64.9915 60.2323 64.8138C60.4523 64.6361 60.6154 64.2649 60.6904 63.9649C60.6645 63.507 60.6723 63.1017 60.6024 62.6793Z" fill="white"/>
<path d="M60.6026 62.6795C60.4887 62.2927 60.2972 61.8887 59.9969 61.7322C59.9193 61.7151 59.808 61.6454 59.7304 61.6283C59.8417 61.698 59.9866 61.8203 60.1315 61.9427C60.3774 62.2229 60.525 62.6624 60.4059 62.998C60.3206 63.3862 60.0126 63.635 59.6916 63.6548C59.337 63.622 59.0238 63.2365 59.0652 62.8838C56.0061 66.552 53.4828 70.7451 51.6272 75.3566C52.0905 75.142 52.748 75.6485 52.9188 76.2287C53.0897 76.809 52.8956 77.4447 52.4892 77.8527C52.4012 77.9238 52.3132 77.9949 52.2253 78.0659C52.4685 78.029 52.6885 77.8513 52.9085 77.6736C53.2812 77.213 53.3977 76.5602 53.2372 75.8918C53.1802 75.6984 53.0896 75.4523 52.911 75.2773C52.7324 75.1023 52.5098 74.9629 52.3002 75.0524C53.9383 70.9358 56.1433 67.0797 58.7728 63.6787C58.7314 64.0314 59.0369 64.8222 59.3034 64.9261C59.6037 65.0826 59.935 64.9746 60.155 64.7969C60.375 64.6192 60.538 64.2481 60.6131 63.9481C60.6648 63.5072 60.6725 63.1019 60.6026 62.6795Z" fill="white"/>
<path d="M52.6032 78.2394C52.3133 77.9947 51.9354 77.821 51.6378 77.9816C51.5498 78.0527 51.4722 78.0356 51.4178 78.1593C51.1098 78.4081 50.9701 78.9201 50.8847 79.3083C50.7811 78.8332 50.336 78.5544 49.9374 78.5571C49.5388 78.5598 49.1764 78.9323 49.0134 79.3034C48.884 79.7272 48.8659 80.2207 48.9695 80.6957C49.0264 80.8891 49.0834 81.0825 49.2283 81.2049C49.4406 81.4325 49.7615 81.4127 49.9375 81.2705C50.1911 81.1455 50.3775 80.9151 50.5198 80.7204C50.2819 85.4617 50.8102 90.4622 52.177 95.1045C51.6878 94.8611 51.1468 95.0586 50.8518 95.5364C50.7431 95.7838 50.6784 95.9957 50.681 96.3128C50.7302 96.9116 51.0227 97.4734 51.4679 97.7523C51.9131 98.0312 52.511 98.0271 52.9406 97.7599C53.3702 97.4926 53.7196 96.8912 53.6704 96.2924C53.7973 96.9083 54.4651 97.3266 54.9956 97.2173C55.2829 97.1448 55.5469 96.9316 55.6996 96.6486C55.842 96.4538 55.917 96.1538 55.9144 95.8366C55.9092 95.2024 55.583 94.5879 55.1146 94.1682C54.9696 94.0459 54.747 93.9064 54.5477 93.9078C54.3484 93.9091 54.0611 93.9816 53.9964 94.1935C52.7306 89.709 52.0497 84.9915 51.9226 80.3055C52.0469 80.6042 52.7586 80.987 53.0123 80.8619C53.2659 80.7369 53.4626 80.4184 53.504 80.0657C53.5454 79.713 53.4652 79.3788 53.3073 79.0275C53.1727 78.8169 52.8931 78.4841 52.6032 78.2394Z" fill="white"/>
<path d="M52.6032 78.2394C52.3133 77.9947 51.9354 77.821 51.6378 77.9816C51.5498 78.0527 51.4722 78.0356 51.4178 78.1593C51.5835 78.1054 51.7053 78.0869 51.8605 78.1211C52.2151 78.1539 52.549 78.3631 52.7069 78.7144C52.8648 79.0657 52.8131 79.5066 52.5827 79.7725C52.3188 79.9857 51.8865 79.9358 51.6846 79.62C51.6719 84.818 52.3348 90.0289 53.7715 95.0936C53.9888 94.5988 54.7627 94.4526 55.2079 94.7314C55.6867 95.063 55.8912 95.6959 55.8628 96.2775C55.8525 96.3657 55.8318 96.542 55.8214 96.6302C55.9638 96.4354 56.0388 96.1354 56.0362 95.8182C56.031 95.184 55.7048 94.5695 55.2364 94.1498C55.0914 94.0274 54.8688 93.888 54.6695 93.8894C54.4702 93.8907 54.1829 93.9632 54.1182 94.175C52.8524 89.6906 52.1715 84.9731 52.0444 80.2871C52.1687 80.5858 52.8804 80.9686 53.1341 80.8435C53.3877 80.7184 53.5844 80.3999 53.6258 80.0473C53.6672 79.6946 53.5869 79.3604 53.4291 79.009C53.1728 78.817 52.8931 78.4841 52.6032 78.2394Z" fill="white"/>
<path d="M51.3239 16.8601C51.4067 16.1548 51.8234 15.6586 52.4213 15.6545C49.7526 10.2281 47.4902 4.39378 45.4944 -1.33669C45.365 -0.912927 44.8008 -0.856214 44.4229 -1.02983C44.045 -1.20345 43.7758 -1.6245 43.7499 -2.08243C43.7602 -2.1706 43.7369 -2.3114 43.7473 -2.39958C43.7887 -2.75226 43.9414 -3.03521 44.1717 -3.30108C44.3581 -3.53141 44.5677 -3.62094 44.8446 -3.60521C45.0879 -3.64211 45.3545 -3.53821 45.4788 -3.23952C45.5072 -3.82117 45.7686 -4.35155 46.1982 -4.61877C46.6279 -4.88601 47.1818 -4.85453 47.6166 -4.48749C48.0514 -4.12043 48.2119 -3.45198 48.0722 -2.94005C47.8885 -2.39258 47.2259 -2.17663 46.7263 -2.3318C48.5021 3.57637 50.8629 9.25148 53.7412 14.5883C54.2563 13.9328 55.3407 13.855 55.9775 14.5378C56.5366 15.2035 56.5573 16.3839 56.0086 16.9868C55.46 17.5896 54.3962 17.4911 53.8811 16.7898C53.8734 17.1951 53.832 17.5478 53.7906 17.9005C53.7052 18.2887 53.5525 18.5717 53.2885 18.7849C53.1565 18.8915 52.9908 18.9455 52.7916 18.9469C52.5923 18.9482 52.3593 18.897 52.1704 18.8102C51.6242 18.3734 51.2411 17.5655 51.3239 16.8601Z" fill="white"/>
<path d="M51.3239 16.8601C51.4067 16.1548 51.8234 15.6586 52.4213 15.6545C49.7526 10.2281 47.4902 4.39378 45.4944 -1.33669C45.365 -0.912927 44.8008 -0.856214 44.4229 -1.02983C44.045 -1.20345 43.7758 -1.6245 43.7499 -2.08243C43.7602 -2.1706 43.7369 -2.3114 43.7473 -2.39958C43.8379 -2.15351 43.9285 -1.90738 44.1071 -1.7324C44.3633 -1.54033 44.6739 -1.47198 44.9275 -1.59705C45.1812 -1.72211 45.5228 -1.91826 45.5642 -2.27094C47.9638 4.09108 50.4954 10.3465 53.1926 16.5479C52.8484 16.4269 52.4394 16.5178 52.1754 16.7311C51.8675 16.9798 51.7381 17.4036 51.808 17.826C51.8546 18.1076 52.0228 18.3707 52.2014 18.5457C52.38 18.7207 52.525 18.843 52.7139 18.9299C52.5146 18.9312 52.2817 18.88 52.0927 18.7931C51.6242 18.3735 51.2411 17.5655 51.3239 16.8601Z" fill="white"/>
<path d="M40.1666 28.1076C39.8172 28.7091 39.8224 29.3434 40.2702 29.9394C35.2672 31.5064 30.2695 33.7078 25.5279 36.1012C25.6573 35.6774 25.3208 35.1511 24.9429 34.9775C24.5651 34.8039 24.1225 34.8421 23.8041 35.1791C23.7161 35.2502 23.7058 35.3383 23.6178 35.4094C23.4651 35.6924 23.3797 36.0806 23.3823 36.3977C23.4289 36.6793 23.5092 37.0136 23.6438 37.2241C23.812 37.4872 24.0786 37.5911 24.2882 37.5016C23.9596 37.9267 23.8871 38.5439 24.0243 39.0716C24.1615 39.5992 24.6197 40.1071 25.0855 40.2096C25.5514 40.3122 26.1027 40.0265 26.2865 39.479C26.4702 38.9316 26.1207 38.1763 25.6756 37.8974C30.3705 35.2224 35.3475 33.1974 40.4851 31.8409C40.4593 32.7397 41.2203 33.7212 42.0511 33.7684C42.8483 33.7629 43.5393 32.9653 43.4875 32.0495C43.4357 31.1336 42.654 30.3284 41.8568 30.3338C42.0871 30.068 42.2838 29.7495 42.4365 29.4665C42.5556 29.1309 42.641 28.7427 42.5607 28.4085C42.5038 28.215 42.4468 28.0216 42.3019 27.8993C42.1673 27.6887 41.9783 27.6019 41.7557 27.4625C41.2562 27.3073 40.516 27.5062 40.1666 28.1076Z" fill="white"/>
<path d="M40.1666 28.1076C39.8172 28.7091 39.8224 29.3434 40.2702 29.9394C35.2672 31.5064 30.2695 33.7078 25.5279 36.1012C25.6573 35.6774 25.3208 35.1511 24.9429 34.9775C24.5651 34.8039 24.1225 34.8421 23.8041 35.1791C23.7161 35.2502 23.7058 35.3383 23.6178 35.4094C23.7938 35.2673 24.0371 35.2306 24.27 35.2819C24.547 35.2977 24.7929 35.5779 24.9171 35.8766C25.0414 36.1753 25.1449 36.6503 24.9586 36.8806C30.3083 34.395 35.7151 32.1028 41.2564 30.0211C40.9665 29.7764 40.7309 29.4079 40.617 29.0211C40.5471 28.5987 40.6765 28.1749 40.9845 27.9261C41.1605 27.784 41.4478 27.7115 41.6807 27.7628C41.88 27.7615 42.069 27.8483 42.2579 27.9351C42.1233 27.7246 41.9344 27.6378 41.7118 27.4983C41.2562 27.3076 40.516 27.5062 40.1666 28.1076Z" fill="white"/>
<path d="M75.255 71.9104C78.3042 71.9923 81.5689 74.2869 81.6782 77.0626C81.7875 79.8383 78.6672 82.0413 75.618 81.9593C72.5688 81.8774 70.7733 79.5891 70.664 76.8134C70.5882 74.0902 72.2394 71.8808 75.255 71.9104Z" fill="#170530"/>
<path d="M89.0754 69.613C88.6703 73.0452 86.3069 76.2288 83.9044 75.7021C81.5019 75.1755 79.9904 71.1425 80.3955 67.7103C80.8007 64.278 82.9667 62.7666 85.3692 63.2932C87.7717 63.8199 89.5141 66.2332 89.0754 69.613Z" fill="#170530"/>
<path d="M77.2969 70.4046C77.8812 70.4877 78.3731 70.011 78.7106 69.5005C78.8627 69.2191 79.0147 68.9377 79.0123 68.6225C79.0537 68.2719 78.9741 67.9398 78.7632 67.7137C78.5523 67.4876 78.21 67.3677 77.9577 67.4922C77.7492 67.5814 77.6409 67.8274 77.5764 68.0381C77.5119 68.2487 77.5581 68.5286 77.527 68.7915C77.2827 68.5132 76.7987 68.587 76.5695 68.8514C76.3402 69.1159 76.3322 69.5188 76.489 69.8679C76.6896 70.1816 77.0215 70.3892 77.2969 70.4046Z" fill="#B1B1B1"/>
</svg>
