<svg width="19" height="25" viewBox="0 0 19 25" fill="none" xmlns="http://www.w3.org/2000/svg">
<g clip-path="url(#clip0_2372_4)">
<path d="M10.3809 22.2754C10.5111 22.2754 10.6185 22.2347 10.7031 22.1533C10.7878 22.0719 10.8431 21.9629 10.8691 21.8262C11.0058 20.7585 11.1605 19.8568 11.333 19.1211C11.5055 18.3854 11.7334 17.78 12.0166 17.3047C12.2998 16.8294 12.6758 16.4502 13.1445 16.167C13.6133 15.8838 14.209 15.6608 14.9316 15.498C15.6543 15.3353 16.5462 15.1953 17.6074 15.0781C17.7441 15.0651 17.8548 15.013 17.9395 14.9219C18.0241 14.8308 18.0664 14.7201 18.0664 14.5898C18.0664 14.4661 18.0241 14.3587 17.9395 14.2676C17.8548 14.1765 17.7441 14.1244 17.6074 14.1113C16.5462 13.9941 15.6543 13.8541 14.9316 13.6914C14.209 13.5287 13.6133 13.3041 13.1445 13.0176C12.6758 12.7311 12.2998 12.3503 12.0166 11.875C11.7334 11.3997 11.5055 10.7959 11.333 10.0635C11.1605 9.33106 11.0058 8.42773 10.8691 7.35352C10.8431 7.22331 10.7878 7.11751 10.7031 7.03613C10.6185 6.95475 10.5111 6.91406 10.3809 6.91406C10.2572 6.91406 10.1514 6.95475 10.0635 7.03613C9.97559 7.11751 9.92187 7.22331 9.90234 7.35352C9.76563 8.42773 9.61101 9.33106 9.43848 10.0635C9.26595 10.7959 9.03646 11.3997 8.75 11.875C8.46354 12.3503 8.08594 12.7311 7.61719 13.0176C7.14844 13.3041 6.55273 13.5287 5.83008 13.6914C5.10742 13.8541 4.21875 13.9941 3.16406 14.1113C3.02083 14.1244 2.9069 14.1765 2.82227 14.2676C2.73763 14.3587 2.69531 14.4661 2.69531 14.5898C2.69531 14.7201 2.73763 14.8308 2.82227 14.9219C2.9069 15.013 3.02083 15.0651 3.16406 15.0781C4.21875 15.2148 5.10579 15.3695 5.8252 15.542C6.5446 15.7145 7.13705 15.9408 7.60254 16.2207C8.06803 16.5006 8.44401 16.875 8.73047 17.3438C9.01693 17.8125 9.24642 18.4098 9.41895 19.1357C9.59147 19.8616 9.7526 20.7585 9.90234 21.8262C9.92187 21.9629 9.97559 22.0719 10.0635 22.1533C10.1514 22.2347 10.2572 22.2754 10.3809 22.2754ZM3.75977 11.4746C3.85091 11.4746 3.92578 11.4453 3.98438 11.3867C4.04297 11.3281 4.07878 11.2565 4.0918 11.1719C4.17643 10.5208 4.26432 10.013 4.35547 9.64844C4.44662 9.28385 4.58822 9.00879 4.78027 8.82324C4.97233 8.63769 5.25879 8.49446 5.63965 8.39355C6.02051 8.29264 6.54948 8.17709 7.22656 8.04688C7.42187 8.00781 7.51953 7.89713 7.51953 7.71484C7.51953 7.62369 7.49186 7.54882 7.43652 7.49023C7.38119 7.43164 7.3112 7.39909 7.22656 7.39258C6.54948 7.29492 6.01888 7.20052 5.63477 7.10938C5.25065 7.01823 4.96256 6.87663 4.77051 6.68457C4.57845 6.49251 4.43848 6.20768 4.35059 5.83008C4.2627 5.45247 4.17643 4.93489 4.0918 4.27734C4.06575 4.06901 3.95508 3.96484 3.75977 3.96484C3.56446 3.96484 3.45378 4.07226 3.42773 4.28711C3.34961 4.93815 3.26498 5.44433 3.17383 5.80566C3.08268 6.16699 2.93945 6.4388 2.74414 6.62109C2.54883 6.80338 2.25911 6.94499 1.875 7.0459C1.49089 7.14681 0.963543 7.26237 0.292969 7.39258C0.0976563 7.42513 0 7.53255 0 7.71484C0 7.90365 0.110677 8.01433 0.332031 8.04688C0.99609 8.15755 1.51855 8.26172 1.89941 8.35938C2.28027 8.45703 2.56673 8.59863 2.75879 8.78418C2.95085 8.96973 3.09082 9.24805 3.17871 9.61914C3.2666 9.99025 3.34961 10.5013 3.42773 11.1523C3.45378 11.3672 3.56446 11.4746 3.75977 11.4746ZM8.48633 4.75586C8.60352 4.75586 8.67513 4.69076 8.70117 4.56055C8.77278 4.16341 8.83789 3.85091 8.89648 3.62305C8.95508 3.39518 9.04134 3.22103 9.15527 3.10059C9.2692 2.98014 9.44336 2.88411 9.67773 2.8125C9.91211 2.74089 10.2409 2.66927 10.6641 2.59766C10.7943 2.57161 10.8594 2.49674 10.8594 2.37305C10.8594 2.25586 10.7943 2.18425 10.6641 2.1582C10.2409 2.08008 9.91211 2.00684 9.67773 1.93848C9.44336 1.87012 9.2692 1.77572 9.15527 1.65527C9.04134 1.53483 8.95508 1.36068 8.89648 1.13281C8.83789 0.904947 8.77278 0.592448 8.70117 0.195312C8.67513 0.065104 8.60352 0 8.48633 0C8.36263 0 8.29101 0.065104 8.27148 0.195312C8.19336 0.592448 8.12663 0.904947 8.07129 1.13281C8.01595 1.36068 7.93131 1.53483 7.81738 1.65527C7.70345 1.77572 7.52929 1.87012 7.29492 1.93848C7.06055 2.00684 6.73177 2.08008 6.30859 2.1582C6.17838 2.18425 6.11328 2.25586 6.11328 2.37305C6.11328 2.49674 6.17838 2.57161 6.30859 2.59766C6.73177 2.66927 7.06055 2.74089 7.29492 2.8125C7.52929 2.88411 7.70345 2.98014 7.81738 3.10059C7.93131 3.22103 8.01595 3.39518 8.07129 3.62305C8.12663 3.85091 8.19336 4.16341 8.27148 4.56055C8.29101 4.69076 8.36263 4.75586 8.48633 4.75586Z" fill="white"/>
</g>
<defs>
<clipPath id="clip0_2372_4">
<rect width="18.0664" height="24.0723" fill="white"/>
</clipPath>
</defs>
</svg>
